<?xml version="1.0" encoding="UTF-8"?>
<svg xmlns="http://www.w3.org/2000/svg" xmlns:xlink="http://www.w3.org/1999/xlink" width="52px" height="46px" viewBox="0 0 52 46" version="1.1">
<g id="surface1">
<path style=" stroke:none;fill-rule:nonzero;fill:rgb(100%,100%,100%);fill-opacity:1;" d="M 10.21875 19.9375 C 5.445312 19.9375 1.386719 16.386719 0.648438 11.550781 C -0.0976562 6.722656 2.695312 2.058594 7.230469 0.546875 C 11.765625 -0.957031 16.695312 1.144531 18.851562 5.507812 C 21.011719 9.867188 19.757812 15.1875 15.890625 18.054688 C 14.238281 19.277344 12.25 19.9375 10.21875 19.9375 Z M 10.21875 1.066406 C 5.402344 1.0625 1.5 5.0625 1.496094 10 C 1.488281 14.933594 5.390625 18.9375 10.203125 18.9375 C 15.015625 18.941406 18.917969 14.941406 18.917969 10 C 18.914062 5.074219 15.023438 1.078125 10.21875 1.066406 Z M 10.21875 1.066406 "/>
<path style=" stroke:none;fill-rule:nonzero;fill:rgb(88.627451%,77.647059%,62.352941%);fill-opacity:1;" d="M 30.410156 32.023438 L 32.660156 33.5625 L 33.707031 34.285156 L 34.308594 34.691406 C 34.640625 35.003906 34.695312 34.972656 34.503906 34.589844 L 35.015625 33.304688 L 34.945312 33.304688 L 36.285156 33.484375 L 36.285156 33.433594 C 35.4375 32.285156 33.84375 33.902344 34.71875 35.03125 L 34.71875 35.085938 C 35.074219 35.449219 35.621094 35.519531 36.054688 35.265625 L 36.132812 35.265625 C 36.558594 35 36.765625 34.472656 36.640625 33.976562 C 36.351562 33.109375 35.25 32.613281 34.523438 32.121094 L 31.527344 30.066406 C 30.34375 29.253906 29.234375 31.21875 30.410156 32.023438 Z M 30.410156 32.023438 "/>
<path style=" stroke:none;fill-rule:nonzero;fill:rgb(88.627451%,77.647059%,62.352941%);fill-opacity:1;" d="M 29.914062 29.664062 C 29.535156 29.445312 29.082031 29.414062 28.679688 29.582031 C 28.277344 29.753906 27.976562 30.105469 27.867188 30.535156 C 27.75 30.929688 27.863281 31.355469 28.148438 31.644531 C 29.84375 32.964844 31.449219 34.363281 32.96875 35.839844 C 34.003906 36.832031 35.570312 35.234375 34.53125 34.234375 C 32.988281 32.761719 31.382812 31.359375 29.71875 30.03125 L 30.003906 31.140625 L 30.070312 30.960938 L 29.304688 31.75 L 29.476562 31.683594 L 28.632812 31.5625 L 28.800781 31.644531 C 30.089844 32.21875 31.21875 30.261719 29.914062 29.6875 Z M 29.914062 29.664062 "/>
<path style=" stroke:none;fill-rule:nonzero;fill:rgb(88.627451%,77.647059%,62.352941%);fill-opacity:1;" d="M 27.074219 31.644531 L 26.589844 31.644531 C 26.246094 31.644531 25.921875 31.808594 25.714844 32.09375 C 25.507812 32.371094 25.4375 32.734375 25.53125 33.074219 C 25.800781 33.882812 26.28125 34.597656 26.910156 35.15625 C 27.976562 36.082031 29.519531 34.5625 28.476562 33.546875 C 27.96875 33.050781 27.484375 32.527344 27.039062 31.96875 C 26.261719 31 25.039062 32.09375 25.191406 33.074219 L 25.191406 33.34375 L 26.816406 32.066406 C 26.597656 31.980469 26.390625 31.847656 26.214844 31.683594 C 25.371094 31.007812 24.46875 32.121094 24.589844 32.964844 C 24.867188 34.839844 27.277344 35.824219 28.734375 36.535156 C 30.636719 37.441406 32.792969 37.660156 34.835938 37.152344 C 36.222656 36.839844 35.632812 34.65625 34.242188 34.972656 C 32.828125 35.308594 31.34375 35.1875 30.003906 34.625 C 29.242188 34.292969 26.894531 33.328125 26.75 32.363281 L 25.125 33.644531 C 25.296875 33.808594 25.503906 33.933594 25.722656 34.023438 C 26.113281 34.246094 26.59375 34.207031 26.949219 33.929688 C 27.300781 33.652344 27.460938 33.1875 27.355469 32.746094 L 27.355469 32.472656 L 25.503906 33.582031 C 25.953125 34.132812 26.429688 34.65625 26.9375 35.15625 L 28.5 33.546875 C 28.117188 33.289062 27.816406 32.910156 27.660156 32.464844 L 26.589844 33.910156 L 27.074219 33.910156 C 28.484375 33.847656 28.496094 31.582031 27.074219 31.644531 Z M 27.074219 31.644531 "/>
<path style=" stroke:none;fill-rule:nonzero;fill:rgb(88.627451%,77.647059%,62.352941%);fill-opacity:1;" d="M 27.714844 30.503906 L 27.378906 30.617188 C 27.003906 30.726562 26.710938 31.035156 26.613281 31.421875 C 26.511719 31.808594 26.613281 32.222656 26.886719 32.511719 C 28.191406 34.011719 29.644531 35.375 31.21875 36.578125 C 31.648438 36.839844 32.199219 36.769531 32.558594 36.40625 C 33.148438 35.792969 33.148438 34.804688 32.558594 34.1875 C 31.34375 32.648438 29.996094 31.222656 28.523438 29.9375 L 26.960938 31.539062 L 32.046875 35.753906 C 33.128906 36.621094 34.679688 35.144531 33.605469 34.148438 C 30.730469 31.488281 27.964844 28.726562 25.300781 25.851562 C 24.453125 24.984375 22.816406 26.15625 23.605469 27.222656 C 24.398438 28.386719 25.25 29.503906 26.148438 30.582031 C 26.886719 31.449219 27.84375 32.800781 28.835938 33.253906 C 29.363281 33.5625 30.027344 33.386719 30.351562 32.859375 L 30.40625 32.769531 C 30.648438 32.324219 30.574219 31.765625 30.226562 31.398438 L 30.171875 31.339844 C 29.171875 30.296875 27.632812 31.902344 28.601562 32.945312 L 28.664062 33 L 28.484375 31.625 L 28.484375 31.710938 L 30 31.300781 C 29.148438 30.929688 28.296875 29.660156 27.761719 28.972656 C 26.96875 28.046875 26.222656 27.082031 25.53125 26.078125 L 23.832031 27.453125 C 26.507812 30.347656 29.277344 33.121094 32.148438 35.753906 L 33.707031 34.148438 L 28.625 29.9375 C 27.546875 29.066406 26.003906 30.507812 27.0625 31.539062 C 27.765625 32.226562 28.453125 32.910156 29.125 33.613281 C 29.570312 34.085938 30.886719 35.109375 30.980469 35.761719 L 31.257812 34.65625 L 31.121094 34.796875 L 32.472656 34.625 C 31.058594 33.519531 29.757812 32.273438 28.585938 30.902344 L 28.09375 32.804688 L 28.4375 32.683594 C 29.78125 32.230469 29.210938 30.078125 27.851562 30.503906 Z M 27.714844 30.503906 "/>
<path style=" stroke:none;fill-rule:nonzero;fill:rgb(88.627451%,77.647059%,62.352941%);fill-opacity:1;" d="M 25.25 24.753906 L 24.910156 24.824219 C 24.328125 24.992188 23.980469 25.617188 24.136719 26.214844 C 24.773438 27.597656 25.558594 28.894531 26.480469 30.09375 L 27.789062 31.980469 C 28.097656 32.566406 28.515625 33.085938 29.023438 33.503906 C 29.316406 33.675781 29.675781 33.703125 29.996094 33.570312 C 30.304688 33.433594 30.546875 33.160156 30.636719 32.824219 L 30.636719 32.769531 C 30.785156 32.171875 30.445312 31.558594 29.867188 31.371094 C 29.296875 31.257812 28.738281 31.613281 28.582031 32.1875 C 28.433594 32.765625 28.738281 33.363281 29.285156 33.5625 L 28.515625 32.171875 L 28.515625 32.21875 L 30.128906 31.539062 C 29.804688 31.125 29.519531 30.679688 29.285156 30.207031 L 28.269531 28.738281 C 27.503906 27.773438 26.847656 26.730469 26.300781 25.617188 L 25.53125 27.007812 L 25.859375 26.9375 C 27.257812 26.648438 26.707031 24.460938 25.277344 24.753906 Z M 25.25 24.753906 "/>
<path style=" stroke:none;fill-rule:nonzero;fill:rgb(88.627451%,77.647059%,62.352941%);fill-opacity:1;" d="M 28.257812 22.3125 C 28.023438 22.042969 27.734375 21.828125 27.410156 21.679688 C 26.746094 21.3125 25.667969 21.746094 25.714844 22.660156 C 25.894531 24.566406 27.097656 26.410156 28.003906 28.058594 C 29 29.894531 30.238281 31.570312 31.683594 33.046875 C 32.003906 33.355469 32.464844 33.441406 32.871094 33.269531 C 33.277344 33.097656 33.550781 32.699219 33.5625 32.25 C 33.652344 31.75 33.515625 31.246094 33.191406 30.867188 C 32.339844 29.703125 30.429688 30.867188 31.277344 32.007812 L 31.347656 32.25 L 33.246094 31.441406 C 32.003906 30.179688 30.9375 28.746094 30.070312 27.191406 C 29.351562 25.929688 28.066406 24.128906 27.929688 22.660156 L 26.230469 23.636719 L 26.597656 23.925781 C 27.570312 24.984375 29.140625 23.382812 28.15625 22.3125 Z M 28.257812 22.3125 "/>
<path style=" stroke:none;fill-rule:nonzero;fill:rgb(88.627451%,77.647059%,62.352941%);fill-opacity:1;" d="M 26.417969 22.949219 L 26.121094 22.839844 C 25.53125 22.671875 24.925781 23.027344 24.757812 23.625 C 24.46875 24.90625 25.328125 25.800781 25.996094 26.816406 C 26.816406 28.054688 27.664062 29.28125 28.539062 30.496094 C 29.679688 32.09375 31.03125 34.484375 33.269531 33.273438 C 34.523438 32.597656 33.410156 30.664062 32.148438 31.320312 C 31.539062 31.644531 27.0625 24.453125 26.707031 23.691406 L 26.816406 24.566406 L 26.894531 24.226562 L 25.53125 25.015625 L 25.824219 25.128906 C 27.175781 25.617188 27.75 23.390625 26.417969 22.941406 Z M 26.417969 22.949219 "/>
<path style=" stroke:none;fill-rule:nonzero;fill:rgb(88.627451%,77.647059%,62.352941%);fill-opacity:1;" d="M 27.96875 23.242188 L 27.242188 23.007812 C 26.082031 22.632812 25.546875 24.09375 26.164062 24.90625 C 27.6875 26.886719 29.308594 28.789062 31.019531 30.597656 C 32.167969 31.804688 33.605469 34.074219 35.445312 33.691406 C 36.019531 33.515625 36.363281 32.902344 36.21875 32.304688 L 36.140625 31.90625 C 35.886719 30.480469 33.753906 31.039062 34.011719 32.511719 L 34.082031 32.902344 L 34.851562 31.511719 L 34.503906 31.570312 L 35.351562 31.691406 C 33.835938 30.71875 32.511719 28.964844 31.308594 27.617188 C 30.105469 26.269531 28.867188 24.785156 27.726562 23.269531 L 26.648438 25.167969 L 27.378906 25.398438 C 28.742188 25.832031 29.316406 23.664062 27.964844 23.210938 Z M 27.96875 23.242188 "/>
<path style=" stroke:none;fill-rule:nonzero;fill:rgb(88.627451%,77.647059%,62.352941%);fill-opacity:1;" d="M 31.359375 25.507812 C 30.683594 24.246094 29.894531 23.058594 28.992188 21.957031 C 28.679688 21.640625 28.207031 21.550781 27.800781 21.722656 C 27.386719 21.898438 27.121094 22.304688 27.113281 22.753906 C 27.328125 23.921875 27.886719 24.988281 28.707031 25.816406 C 29.820312 27.269531 30.960938 28.695312 32.097656 30.09375 C 33.027344 31.21875 35.023438 34.875 36.808594 33.230469 C 37.089844 32.941406 37.195312 32.519531 37.089844 32.128906 L 37.03125 31.953125 C 36.527344 30.597656 34.390625 31.1875 34.894531 32.550781 L 34.953125 32.726562 L 35.242188 31.625 L 35.085938 31.773438 L 36.164062 31.476562 C 35.539062 31.277344 33.691406 28.53125 32.96875 27.652344 C 32.253906 26.773438 31.742188 26.136719 31.140625 25.367188 C 30.648438 24.746094 29.386719 23.566406 29.304688 22.753906 L 27.410156 23.558594 C 28.171875 24.523438 28.847656 25.554688 29.429688 26.640625 C 30.117188 27.917969 32.019531 26.78125 31.335938 25.507812 Z M 31.359375 25.507812 "/>
<path style=" stroke:none;fill-rule:nonzero;fill:rgb(88.627451%,77.647059%,62.352941%);fill-opacity:1;" d="M 30.039062 22.140625 L 29.742188 21.785156 C 28.789062 20.679688 27.28125 22.28125 28.171875 23.390625 C 30.570312 26.386719 33.027344 29.335938 35.554688 32.230469 C 36.25 33.03125 37.351562 32.320312 37.4375 31.425781 C 37.5 30.957031 37.394531 30.484375 37.148438 30.09375 C 36.480469 28.804688 34.605469 29.945312 35.234375 31.242188 L 35.234375 31.425781 L 37.125 30.625 C 34.609375 27.730469 32.152344 24.777344 29.75 21.785156 L 28.179688 23.390625 L 28.484375 23.742188 C 29.417969 24.84375 30.980469 23.234375 30.046875 22.140625 Z M 30.039062 22.140625 "/>
<path style=" stroke:none;fill-rule:nonzero;fill:rgb(88.627451%,77.647059%,62.352941%);fill-opacity:1;" d="M 31.480469 22.320312 L 30.785156 21.6875 C 29.722656 20.722656 28.179688 22.28125 29.214844 23.292969 C 31.824219 25.8125 34.164062 28.605469 36.199219 31.625 C 36.75 32.441406 38.417969 32.285156 38.269531 31.0625 C 38.222656 30.46875 38.027344 29.902344 37.71875 29.40625 C 36.867188 28.214844 34.996094 29.34375 35.804688 30.558594 L 36.054688 31.0625 L 38.113281 30.484375 C 35.972656 27.300781 33.515625 24.351562 30.785156 21.6875 L 29.214844 23.292969 L 29.914062 23.929688 C 30.972656 24.894531 32.539062 23.292969 31.480469 22.320312 Z M 31.480469 22.320312 "/>
<path style=" stroke:none;fill-rule:nonzero;fill:rgb(88.627451%,77.647059%,62.352941%);fill-opacity:1;" d="M 32.546875 21.785156 C 32.335938 21.308594 31.894531 20.980469 31.386719 20.914062 C 30.910156 20.800781 30.410156 21.019531 30.164062 21.457031 C 29.921875 21.890625 29.976562 22.441406 30.308594 22.808594 C 31.582031 24.140625 32.851562 25.519531 33.960938 26.957031 C 34.972656 28.207031 35.816406 29.726562 37.226562 30.546875 C 37.660156 30.796875 38.203125 30.722656 38.554688 30.363281 C 38.910156 30.003906 38.988281 29.445312 38.742188 29 C 38.554688 28.652344 38.316406 28.335938 38.027344 28.070312 C 36.988281 27.074219 35.421875 28.679688 36.460938 29.675781 L 36.828125 30.136719 L 38.34375 28.589844 C 37.054688 27.839844 36.140625 26.09375 35.203125 24.949219 C 34.140625 23.648438 33.035156 22.402344 31.878906 21.207031 L 30.800781 23.105469 L 31.117188 23.105469 L 30.453125 22.582031 L 30.636719 22.863281 C 31.425781 24.0625 33.351562 22.929688 32.546875 21.710938 Z M 32.546875 21.785156 "/>
<path style=" stroke:none;fill-rule:nonzero;fill:rgb(88.627451%,77.647059%,62.352941%);fill-opacity:1;" d="M 33.960938 26.957031 C 35.816406 29.113281 37.4375 31.433594 39.800781 33.042969 C 40.992188 33.847656 42.101562 31.882812 40.921875 31.085938 C 38.734375 29.597656 37.238281 27.335938 35.53125 25.355469 C 34.589844 24.261719 32.988281 25.871094 33.960938 26.957031 Z M 33.960938 26.957031 "/>
<path style=" stroke:none;fill-rule:nonzero;fill:rgb(88.627451%,77.647059%,62.352941%);fill-opacity:1;" d="M 34.226562 26.425781 L 37.542969 30.015625 C 38.394531 30.882812 39.242188 32.363281 40.515625 32.460938 C 41.929688 32.570312 41.929688 30.300781 40.515625 30.191406 L 40.308594 30.191406 L 41.09375 30.519531 C 40.179688 29.660156 39.308594 28.738281 38.503906 27.761719 L 35.792969 24.824219 C 34.8125 23.765625 33.25 25.375 34.226562 26.433594 Z M 34.226562 26.425781 "/>
<path style=" stroke:none;fill-rule:nonzero;fill:rgb(88.627451%,77.647059%,62.352941%);fill-opacity:1;" d="M 36.617188 29.519531 L 39.734375 32.460938 C 40.773438 33.441406 42.34375 31.84375 41.292969 30.851562 L 38.183594 27.917969 C 37.132812 26.929688 35.5625 28.53125 36.617188 29.519531 Z M 36.617188 29.519531 "/>
<path style=" stroke:none;fill-rule:nonzero;fill:rgb(88.627451%,77.647059%,62.352941%);fill-opacity:1;" d="M 38.582031 27.738281 L 38.503906 27.546875 L 36.65625 28.640625 L 40.191406 31.691406 C 41.269531 32.621094 42.84375 31.023438 41.75 30.085938 L 38.226562 27.042969 C 37.464844 26.390625 35.945312 26.980469 36.375 28.144531 L 36.445312 28.339844 C 36.945312 29.695312 39.082031 29.105469 38.582031 27.738281 Z M 38.582031 27.738281 "/>
<path style=" stroke:none;fill-rule:nonzero;fill:rgb(88.627451%,77.647059%,62.352941%);fill-opacity:1;" d="M 39.835938 31.207031 C 40.957031 32.046875 41.859375 33.160156 42.460938 34.445312 L 44.371094 33.292969 L 44.160156 32.980469 C 43.308594 31.800781 41.429688 32.929688 42.25 34.128906 L 42.460938 34.445312 C 42.796875 34.917969 43.429688 35.054688 43.921875 34.757812 C 44.421875 34.457031 44.609375 33.828125 44.371094 33.292969 C 43.578125 31.679688 42.414062 30.296875 40.976562 29.253906 C 39.773438 28.472656 38.667969 30.425781 39.859375 31.207031 Z M 39.835938 31.207031 "/>
<path style=" stroke:none;fill-rule:nonzero;fill:rgb(88.627451%,77.647059%,62.352941%);fill-opacity:1;" d="M 41.300781 32.066406 L 41.300781 32.011719 C 41.457031 31.410156 41.117188 30.789062 40.53125 30.617188 L 40.457031 30.617188 C 40.074219 30.519531 39.671875 30.636719 39.394531 30.917969 C 39.113281 31.203125 39.003906 31.613281 39.097656 32.007812 C 39.308594 33.023438 40.421875 33.5625 40.789062 34.527344 L 42.417969 33.25 L 38.511719 30.386719 C 37.667969 29.742188 36.34375 31.039062 37.007812 31.9375 C 37.5625 32.625 37.996094 33.414062 38.277344 34.265625 L 40.300781 33.394531 C 39.546875 32.355469 38.695312 31.390625 37.761719 30.519531 C 36.910156 29.703125 35.289062 30.765625 36.0625 31.890625 C 36.761719 32.984375 37.390625 34.117188 37.9375 35.289062 L 39.632812 33.917969 C 38.714844 33.167969 37.886719 32.304688 37.164062 31.355469 C 36.867188 30.902344 36.296875 30.722656 35.804688 30.929688 C 35.308594 31.144531 35.03125 31.6875 35.140625 32.226562 C 35.308594 32.984375 35.582031 33.714844 35.9375 34.40625 L 36.234375 35.085938 L 36.359375 34.855469 C 36.019531 34.363281 35.585938 33.988281 35.257812 33.421875 C 34.625 32.40625 32.777344 33.042969 33.246094 34.292969 L 33.855469 35.941406 C 33.984375 36.292969 34.0625 37.359375 34.328125 36.761719 L 36.242188 36.761719 C 35.753906 36.089844 35.21875 35.457031 34.632812 34.875 C 33.902344 34.164062 32.355469 34.875 32.785156 35.976562 C 33.15625 36.933594 33.589844 37.871094 34.070312 38.773438 L 35.765625 37.398438 L 34.070312 35.761719 C 33.222656 34.894531 31.597656 36.039062 32.378906 37.136719 C 32.886719 37.90625 33.488281 38.605469 34.164062 39.222656 L 35.734375 37.617188 C 35.242188 37.195312 34.792969 36.734375 34.390625 36.21875 L 32.832031 37.824219 L 33.15625 38.214844 C 34.085938 39.316406 35.648438 37.699219 34.726562 36.609375 L 34.390625 36.21875 C 33.449219 35.105469 31.964844 36.710938 32.832031 37.824219 C 33.230469 38.335938 33.679688 38.804688 34.164062 39.222656 C 35.25 40.089844 36.820312 38.578125 35.734375 37.617188 C 35.183594 37.140625 34.695312 36.589844 34.285156 35.988281 L 32.589844 37.371094 L 34.285156 39.003906 C 34.691406 39.332031 35.257812 39.332031 35.660156 39.003906 C 36.0625 38.675781 36.195312 38.113281 35.976562 37.632812 C 35.574219 36.90625 35.21875 36.15625 34.914062 35.378906 L 33.066406 36.480469 C 33.519531 36.921875 33.941406 37.398438 34.320312 37.910156 C 34.757812 38.507812 35.84375 38.777344 36.234375 37.910156 C 36.84375 36.53125 35.851562 34.996094 35.382812 33.683594 L 33.359375 34.550781 C 34.207031 35.839844 35.90625 38.378906 37.683594 37.269531 C 39.769531 35.972656 37.566406 33.171875 37.285156 31.597656 L 35.265625 32.464844 C 36.082031 33.585938 37.03125 34.597656 38.082031 35.484375 C 38.484375 35.8125 39.054688 35.8125 39.460938 35.484375 C 39.859375 35.15625 39.992188 34.589844 39.773438 34.109375 C 39.226562 32.933594 38.601562 31.800781 37.894531 30.710938 L 36.199219 32.085938 C 37.011719 32.8125 37.757812 33.625 38.417969 34.496094 C 39.128906 35.449219 40.835938 34.972656 40.445312 33.628906 C 40.121094 32.589844 39.613281 31.613281 38.945312 30.753906 L 37.429688 32.308594 L 41.335938 35.171875 C 41.726562 35.390625 42.207031 35.355469 42.554688 35.078125 C 42.90625 34.796875 43.066406 34.335938 42.960938 33.890625 C 42.796875 33.410156 42.558594 32.953125 42.265625 32.535156 C 42.070312 32.265625 41.335938 31.667969 41.273438 31.371094 L 39.910156 32.761719 L 39.988281 32.761719 L 39.214844 31.371094 L 39.214844 31.425781 C 38.925781 32.851562 41.066406 33.457031 41.351562 32.023438 Z M 41.300781 32.066406 "/>
<path style=" stroke:none;fill-rule:nonzero;fill:rgb(88.627451%,77.647059%,62.352941%);fill-opacity:1;" d="M 34.75 36.941406 L 34.503906 36.875 C 34.363281 36.835938 34.207031 36.835938 34.0625 36.875 C 33.917969 36.878906 33.78125 36.929688 33.65625 37.003906 C 33.53125 37.078125 33.425781 37.179688 33.347656 37.296875 C 33.25 37.410156 33.183594 37.539062 33.148438 37.683594 L 33.148438 37.988281 C 33.148438 38.191406 33.199219 38.390625 33.300781 38.5625 L 33.472656 38.785156 C 33.609375 38.925781 33.777344 39.027344 33.960938 39.082031 L 34.199219 39.144531 C 34.34375 39.1875 34.492188 39.1875 34.640625 39.144531 C 34.929688 39.117188 35.1875 38.960938 35.359375 38.71875 C 35.460938 38.605469 35.53125 38.472656 35.5625 38.328125 L 35.5625 38.019531 C 35.5625 37.824219 35.511719 37.632812 35.421875 37.457031 L 35.242188 37.21875 C 35.105469 37.085938 34.941406 36.980469 34.757812 36.933594 Z M 34.75 36.941406 "/>
<path style=" stroke:none;fill-rule:nonzero;fill:rgb(88.627451%,77.647059%,62.352941%);fill-opacity:1;" d="M 34.75 37.335938 C 34.453125 37.664062 34.273438 38.082031 34.234375 38.523438 C 34.226562 38.9375 34.4375 39.3125 34.78125 39.507812 C 36.109375 40.277344 37.472656 39.160156 38.550781 38.421875 C 39.957031 37.449219 41.292969 36.351562 42.519531 35.144531 C 43.554688 34.132812 41.988281 32.535156 40.953125 33.546875 C 40.15625 34.347656 39.304688 35.097656 38.410156 35.789062 C 37.636719 36.4375 36.808594 37.019531 35.9375 37.523438 L 36.488281 38.507812 L 36.488281 38.300781 L 36.164062 39.097656 C 36.351562 38.898438 36.523438 38.683594 36.675781 38.457031 C 37.519531 37.273438 35.601562 36.140625 34.769531 37.320312 Z M 34.75 37.335938 "/>
<path style=" stroke:none;fill-rule:nonzero;fill:rgb(88.627451%,77.647059%,62.352941%);fill-opacity:1;" d="M 38.140625 38.171875 C 39.199219 38.761719 40.28125 37.941406 41.199219 37.371094 C 41.734375 37.039062 42.246094 36.671875 42.734375 36.273438 L 43.511719 35.632812 L 43.835938 35.328125 C 44.261719 35.15625 44.285156 34.976562 43.914062 34.824219 L 45.648438 33.449219 L 42.921875 30.988281 C 41.851562 30.03125 40.28125 31.632812 41.351562 32.597656 L 44.089844 35.054688 C 44.933594 35.847656 46.632812 34.796875 45.785156 33.683594 C 45.457031 33.179688 44.929688 32.84375 44.34375 32.769531 C 43.753906 32.691406 43.164062 32.886719 42.722656 33.292969 C 41.421875 34.273438 40.179688 35.777344 38.550781 36.195312 L 39.394531 36.3125 L 39.214844 36.207031 C 37.964844 35.507812 36.84375 37.46875 38.097656 38.171875 Z M 38.140625 38.171875 "/>
<path style=" stroke:none;fill-rule:nonzero;fill:rgb(88.627451%,77.647059%,62.352941%);fill-opacity:1;" d="M 33.144531 38.542969 L 36.445312 42.75 C 37.339844 43.890625 38.894531 42.269531 38.011719 41.152344 L 34.695312 36.941406 C 33.855469 35.808594 32.253906 37.421875 33.144531 38.542969 Z M 33.144531 38.542969 "/>
<path style=" stroke:none;fill-rule:nonzero;fill:rgb(88.627451%,77.647059%,62.352941%);fill-opacity:1;" d="M 25.824219 22.5 C 26.289062 23.496094 27.132812 24.265625 28.15625 24.613281 C 28.636719 24.734375 29.140625 24.515625 29.390625 24.078125 C 29.636719 23.636719 29.574219 23.082031 29.234375 22.710938 C 28.375 21.972656 27.6875 21.046875 27.214844 20 L 26.261719 21.738281 C 26.734375 22.023438 27.179688 22.351562 27.585938 22.730469 C 28.167969 23.1875 28.726562 23.667969 29.285156 24.15625 L 30.839844 22.558594 C 29.363281 21.308594 28.136719 19.777344 27.222656 18.054688 L 25.972656 19.722656 C 26.671875 19.867188 27.308594 20.777344 27.789062 21.285156 C 28.429688 21.957031 29.046875 22.632812 29.65625 23.328125 L 31.21875 21.722656 C 30.070312 20.625 29.148438 19.300781 28.496094 17.835938 L 26.648438 18.9375 C 27.753906 20.429688 28.949219 21.847656 30.230469 23.183594 C 30.671875 23.585938 31.34375 23.570312 31.761719 23.140625 C 32.179688 22.710938 32.195312 22.023438 31.800781 21.574219 C 30.664062 20.242188 29.59375 18.855469 28.597656 17.410156 L 26.902344 18.78125 C 28.109375 19.992188 29.222656 21.289062 30.242188 22.667969 L 31.933594 21.296875 L 31.605469 20.941406 C 30.613281 19.886719 29.0625 21.496094 30.039062 22.550781 L 30.375 22.902344 C 31.222656 23.773438 32.917969 22.574219 32.113281 21.527344 C 30.988281 19.992188 29.757812 18.539062 28.429688 17.183594 C 27.582031 16.316406 25.941406 17.472656 26.730469 18.558594 C 27.84375 20.15625 29.023438 21.707031 30.273438 23.183594 L 31.84375 21.574219 C 30.558594 20.246094 29.359375 18.832031 28.257812 17.339844 C 27.582031 16.472656 26.027344 17.410156 26.402344 18.445312 C 27.179688 20.28125 28.296875 21.941406 29.699219 23.328125 C 30.675781 24.40625 32.238281 22.808594 31.257812 21.722656 C 30.480469 20.855469 29.679688 19.984375 28.851562 19.117188 C 28.273438 18.371094 27.488281 17.816406 26.605469 17.523438 C 26.175781 17.417969 25.722656 17.582031 25.453125 17.941406 C 25.183594 18.300781 25.144531 18.792969 25.351562 19.195312 C 26.351562 21.089844 27.703125 22.773438 29.328125 24.148438 C 30.410156 25.070312 31.980469 23.511719 30.886719 22.550781 C 29.664062 21.460938 27.992188 19.574219 26.300781 19.460938 C 25.898438 19.460938 25.527344 19.683594 25.328125 20.042969 C 25.128906 20.40625 25.132812 20.84375 25.34375 21.203125 C 25.90625 22.421875 26.714844 23.503906 27.714844 24.382812 L 28.789062 22.488281 C 28.320312 22.296875 27.949219 21.902344 27.773438 21.410156 C 27.179688 20.085938 25.230469 21.234375 25.871094 22.558594 Z M 25.824219 22.5 "/>
<path style=" stroke:none;fill-rule:nonzero;fill:rgb(88.627451%,77.647059%,62.352941%);fill-opacity:1;" d="M 25.511719 17.734375 C 25.511719 18.773438 26.363281 19.316406 26.9375 20.070312 C 27.636719 20.96875 28.289062 21.914062 28.882812 22.886719 L 30.394531 21.339844 C 28.527344 19.941406 26.839844 18.304688 25.371094 16.476562 L 23.808594 18.078125 L 28.421875 23.574219 C 29.351562 24.675781 30.914062 23.070312 29.988281 21.964844 L 25.371094 16.476562 C 24.4375 15.367188 22.914062 16.976562 23.808594 18.078125 C 25.40625 20.054688 27.246094 21.808594 29.285156 23.292969 C 30.183594 23.964844 31.386719 22.660156 30.792969 21.746094 C 30.304688 20.976562 29.8125 20.207031 29.265625 19.472656 C 29.054688 19.183594 28.84375 18.898438 28.625 18.601562 C 28.34375 18.285156 28.042969 18 27.726562 17.734375 C 27.726562 16.28125 25.480469 16.269531 25.511719 17.734375 Z M 25.511719 17.734375 "/>
<path style=" stroke:none;fill-rule:nonzero;fill:rgb(88.627451%,77.647059%,62.352941%);fill-opacity:1;" d="M 21.757812 17.734375 C 23.246094 19.320312 24.792969 20.839844 26.402344 22.296875 C 27.46875 23.25 29.039062 21.652344 27.964844 20.699219 C 26.351562 19.246094 24.804688 17.722656 23.324219 16.132812 C 22.34375 15.074219 20.78125 16.679688 21.757812 17.734375 Z M 21.757812 17.734375 "/>
<path style=" stroke:none;fill-rule:nonzero;fill:rgb(88.627451%,77.647059%,62.352941%);fill-opacity:1;" d="M 21.757812 14.917969 C 21.441406 14.386719 20.78125 14.207031 20.25 14.507812 L 20.191406 14.507812 C 19.664062 14.824219 19.488281 15.511719 19.792969 16.054688 C 20.472656 17.097656 22.023438 17.796875 23.019531 18.457031 C 24.339844 19.203125 25.570312 20.109375 26.683594 21.15625 C 27.648438 22.234375 29.226562 20.625 28.242188 19.558594 C 27.324219 18.652344 26.304688 17.871094 25.199219 17.21875 L 23.503906 16.058594 C 22.863281 15.753906 22.261719 15.367188 21.707031 14.917969 L 21.308594 16.460938 L 21.363281 16.460938 L 19.851562 16.058594 C 20.527344 17.347656 22.445312 16.199219 21.769531 14.917969 Z M 21.757812 14.917969 "/>
<path style=" stroke:none;fill-rule:nonzero;fill:rgb(88.627451%,77.647059%,62.352941%);fill-opacity:1;" d="M 19.011719 15.996094 C 21.234375 16.949219 23.394531 18.042969 25.472656 19.285156 C 25.988281 19.539062 26.609375 19.339844 26.898438 18.832031 C 27.183594 18.324219 27.054688 17.675781 26.589844 17.332031 C 24.335938 16 22 14.824219 19.597656 13.804688 C 18.285156 13.246094 17.714844 15.4375 19.011719 15.996094 Z M 19.011719 15.996094 "/>
<path style=" stroke:none;fill-rule:nonzero;fill:rgb(88.627451%,77.647059%,62.352941%);fill-opacity:1;" d="M 20.882812 14.53125 L 20.84375 14.53125 L 21.351562 15.8125 L 21.351562 15.710938 L 20.292969 16.578125 C 21.140625 16.472656 22.683594 17.496094 23.453125 17.878906 C 24.441406 18.355469 25.429688 18.871094 26.394531 19.402344 C 27.648438 20.085938 28.765625 18.132812 27.511719 17.449219 C 26.261719 16.757812 24.972656 16.089844 23.648438 15.476562 C 22.664062 15.011719 21.402344 14.175781 20.257812 14.308594 C 19.757812 14.332031 19.332031 14.683594 19.191406 15.175781 L 19.191406 15.285156 C 19.054688 15.773438 19.261719 16.296875 19.699219 16.554688 C 20.96875 17.21875 22.085938 15.261719 20.816406 14.601562 Z M 20.882812 14.53125 "/>
<path style=" stroke:none;fill-rule:nonzero;fill:rgb(88.627451%,77.647059%,62.352941%);fill-opacity:1;" d="M 22.570312 14.636719 C 22.40625 14.035156 21.796875 13.683594 21.207031 13.847656 L 21.148438 13.847656 C 20.558594 14.019531 20.21875 14.644531 20.375 15.246094 C 20.65625 16.253906 22.074219 16.679688 22.917969 17.121094 C 24.199219 17.820312 25.464844 18.503906 26.792969 19.175781 C 28.125 19.84375 29.183594 17.875 27.910156 17.210938 C 26.871094 16.679688 25.835938 16.132812 24.808594 15.578125 C 23.851562 15.144531 22.925781 14.632812 22.046875 14.042969 L 22.554688 14.726562 L 22.554688 14.648438 L 21.78125 16.035156 L 21.851562 16.035156 L 20.488281 15.246094 L 20.488281 15.296875 C 20.78125 16.726562 22.914062 16.113281 22.625 14.6875 Z M 22.570312 14.636719 "/>
<path style=" stroke:none;fill-rule:nonzero;fill:rgb(88.627451%,77.647059%,62.352941%);fill-opacity:1;" d="M 22.554688 16.539062 L 27.316406 18.9375 C 28.585938 19.574219 29.71875 17.617188 28.4375 16.976562 L 23.671875 14.574219 C 22.402344 13.941406 21.273438 15.894531 22.554688 16.539062 Z M 22.554688 16.539062 "/>
<path style=" stroke:none;fill-rule:nonzero;fill:rgb(88.627451%,77.647059%,62.352941%);fill-opacity:1;" d="M 15.179688 11.5 L 14.875 11.445312 C 13.738281 11.21875 12.808594 12.941406 14.027344 13.515625 C 16.140625 14.507812 18.402344 15.375 20.410156 16.566406 C 20.9375 16.847656 21.585938 16.660156 21.882812 16.132812 C 22.183594 15.605469 22.027344 14.933594 21.53125 14.601562 C 19.511719 13.421875 17.289062 12.550781 15.140625 11.5625 L 14.292969 13.628906 L 14.597656 13.691406 C 15.984375 13.957031 16.578125 11.777344 15.179688 11.5 Z M 15.179688 11.5 "/>
<path style=" stroke:none;fill-rule:nonzero;fill:rgb(88.627451%,77.647059%,62.352941%);fill-opacity:1;" d="M 13.566406 13.820312 L 17.003906 15.472656 C 17.960938 16.027344 18.972656 16.480469 20.019531 16.828125 C 21.410156 17.160156 21.996094 14.972656 20.613281 14.648438 C 19.597656 14.304688 18.621094 13.851562 17.691406 13.304688 L 14.671875 11.855469 C 13.394531 11.242188 12.273438 13.195312 13.566406 13.820312 Z M 13.566406 13.820312 "/>
<path style=" stroke:none;fill-rule:nonzero;fill:rgb(88.627451%,77.647059%,62.352941%);fill-opacity:1;" d="M 15.257812 14.542969 C 17.289062 15.671875 19.371094 16.707031 21.476562 17.671875 C 22.773438 18.253906 23.90625 16.296875 22.59375 15.710938 C 20.476562 14.75 18.410156 13.707031 16.367188 12.585938 C 15.121094 11.890625 14.003906 13.847656 15.257812 14.542969 Z M 15.257812 14.542969 "/>
<path style=" stroke:none;fill-rule:nonzero;fill:rgb(88.627451%,77.647059%,62.352941%);fill-opacity:1;" d="M 19.234375 16.789062 C 20.40625 17.257812 21.539062 17.824219 22.625 18.480469 C 23.148438 18.796875 23.828125 18.613281 24.132812 18.070312 C 24.4375 17.53125 24.261719 16.839844 23.730469 16.527344 C 22.492188 15.773438 21.191406 15.128906 19.851562 14.601562 C 19.261719 14.441406 18.660156 14.792969 18.496094 15.390625 C 18.34375 15.996094 18.6875 16.609375 19.269531 16.789062 Z M 19.234375 16.789062 "/>
<path style=" stroke:none;fill-rule:nonzero;fill:rgb(88.627451%,77.647059%,62.352941%);fill-opacity:1;" d="M 21.46875 18.277344 C 21.914062 18.636719 22.308594 19.039062 22.664062 19.488281 C 22.996094 20.058594 23.503906 20.503906 24.109375 20.757812 C 25.472656 21.191406 26.042969 19.019531 24.691406 18.574219 C 24.9375 18.652344 24.820312 18.691406 24.742188 18.574219 C 24.683594 18.484375 24.621094 18.398438 24.554688 18.316406 C 24.351562 18.042969 24.148438 17.78125 23.921875 17.53125 C 23.515625 17.089844 23.066406 16.6875 22.585938 16.332031 C 22.058594 16.015625 21.382812 16.199219 21.070312 16.738281 C 20.78125 17.28125 20.960938 17.960938 21.46875 18.285156 Z M 21.46875 18.277344 "/>
<path style=" stroke:none;fill-rule:nonzero;fill:rgb(88.627451%,77.647059%,62.352941%);fill-opacity:1;" d="M 16.34375 13.992188 C 18.117188 14.671875 19.84375 15.492188 21.492188 16.449219 C 22.742188 17.160156 23.859375 15.207031 22.613281 14.492188 C 20.785156 13.441406 18.886719 12.542969 16.925781 11.800781 C 15.585938 11.296875 15.011719 13.488281 16.34375 13.992188 Z M 16.34375 13.992188 "/>
<path style=" stroke:none;fill-rule:nonzero;fill:rgb(88.627451%,77.647059%,62.352941%);fill-opacity:1;" d="M 13.730469 10.777344 C 13.421875 10.242188 12.753906 10.0625 12.226562 10.367188 L 12.164062 10.367188 C 11.644531 10.6875 11.472656 11.375 11.765625 11.917969 C 12.128906 12.628906 13.199219 12.785156 13.871094 13.011719 C 14.875 13.382812 15.878906 13.804688 16.851562 14.246094 C 18.144531 14.835938 19.277344 12.882812 17.96875 12.289062 C 17.1875 11.929688 16.398438 11.585938 15.601562 11.265625 L 14.457031 10.828125 C 14.238281 10.742188 14.011719 10.664062 13.792969 10.582031 C 13.386719 10.378906 13.347656 10.4375 13.683594 10.777344 L 13.285156 12.328125 L 13.332031 12.328125 L 11.824219 11.917969 C 12.453125 13.226562 14.367188 12.082031 13.738281 10.769531 Z M 13.730469 10.777344 "/>
<path style=" stroke:none;fill-rule:nonzero;fill:rgb(88.627451%,77.647059%,62.352941%);fill-opacity:1;" d="M 10.882812 11.644531 C 11.867188 12.089844 12.808594 12.621094 13.699219 13.234375 C 14.875 14.105469 15.984375 12.097656 14.816406 11.28125 C 13.925781 10.664062 12.980469 10.128906 11.996094 9.691406 C 11.464844 9.394531 10.804688 9.578125 10.484375 10.101562 C 10.183594 10.640625 10.363281 11.328125 10.882812 11.644531 Z M 10.882812 11.644531 "/>
<path style=" stroke:none;fill-rule:nonzero;fill:rgb(88.627451%,77.647059%,62.352941%);fill-opacity:1;" d="M 10.445312 11.476562 C 11.496094 12.3125 12.65625 13.007812 13.886719 13.53125 C 14.476562 13.695312 15.085938 13.339844 15.25 12.730469 C 15.394531 12.132812 15.054688 11.523438 14.480469 11.34375 C 13.59375 10.960938 12.761719 10.464844 12.003906 9.863281 C 11.566406 9.445312 10.882812 9.445312 10.445312 9.863281 C 10.015625 10.308594 10.015625 11.027344 10.445312 11.476562 Z M 10.445312 11.476562 "/>
<path style=" stroke:none;fill-rule:nonzero;fill:rgb(88.627451%,77.647059%,62.352941%);fill-opacity:1;" d="M 10.570312 12.039062 L 11.539062 12.550781 L 12.046875 12.839844 C 12.097656 12.839844 12.53125 13.171875 12.34375 13.003906 L 12.050781 12.5 L 12.835938 11.101562 L 14.191406 11.890625 C 14.027344 11.289062 13.417969 10.9375 12.832031 11.105469 C 12.246094 11.273438 11.898438 11.898438 12.0625 12.5 C 12.234375 13.097656 12.835938 13.445312 13.425781 13.289062 C 14.007812 13.109375 14.347656 12.492188 14.199219 11.890625 C 14.074219 11.296875 13.445312 11.019531 12.972656 10.722656 C 12.496094 10.425781 12.125 10.265625 11.679688 10.039062 C 11.15625 9.722656 10.480469 9.90625 10.171875 10.449219 C 9.867188 10.984375 10.046875 11.679688 10.570312 11.996094 Z M 10.570312 12.039062 "/>
<path style=" stroke:none;fill-rule:nonzero;fill:rgb(88.627451%,77.647059%,62.352941%);fill-opacity:1;" d="M 10.726562 12.246094 L 12.691406 13.445312 C 13.214844 13.761719 13.894531 13.582031 14.203125 13.042969 C 14.511719 12.503906 14.335938 11.804688 13.808594 11.488281 L 11.835938 10.289062 C 11.308594 9.976562 10.628906 10.160156 10.324219 10.699219 C 10.015625 11.242188 10.195312 11.929688 10.726562 12.246094 Z M 10.726562 12.246094 "/>
<path style=" stroke:none;fill-rule:nonzero;fill:rgb(88.627451%,77.647059%,62.352941%);fill-opacity:1;" d="M 10.242188 9.234375 L 10.832031 9.234375 L 11.097656 9.339844 L 11.316406 9.519531 L 11.484375 9.742188 L 11.597656 10.023438 C 11.566406 9.878906 11.496094 9.746094 11.402344 9.636719 C 11.328125 9.515625 11.214844 9.414062 11.085938 9.339844 C 10.964844 9.261719 10.828125 9.214844 10.679688 9.203125 C 10.539062 9.164062 10.382812 9.164062 10.242188 9.203125 L 9.96875 9.316406 C 9.808594 9.417969 9.671875 9.554688 9.582031 9.726562 L 9.460938 9.996094 C 9.40625 10.191406 9.40625 10.398438 9.460938 10.597656 C 9.523438 10.796875 9.628906 10.980469 9.765625 11.136719 C 9.839844 11.210938 9.929688 11.28125 10.019531 11.335938 C 10.199219 11.4375 10.40625 11.488281 10.617188 11.488281 C 10.726562 11.515625 10.84375 11.515625 10.953125 11.488281 C 11.089844 11.457031 11.21875 11.386719 11.328125 11.289062 C 11.449219 11.210938 11.542969 11.101562 11.617188 10.96875 C 11.691406 10.84375 11.734375 10.699219 11.742188 10.554688 C 11.78125 10.402344 11.78125 10.246094 11.742188 10.101562 L 11.632812 9.820312 C 11.535156 9.65625 11.394531 9.519531 11.234375 9.421875 L 10.96875 9.300781 C 10.773438 9.246094 10.570312 9.246094 10.375 9.300781 Z M 10.242188 9.234375 "/>
<path style=" stroke:none;fill-rule:nonzero;fill:rgb(88.627451%,77.647059%,62.352941%);fill-opacity:1;" d="M 10.171875 9.960938 C 9.996094 10.257812 9.953125 10.613281 10.046875 10.941406 C 10.078125 11.058594 10.121094 11.167969 10.179688 11.273438 C 10.292969 11.453125 10.4375 11.605469 10.617188 11.71875 C 10.738281 11.796875 10.882812 11.84375 11.03125 11.847656 C 11.171875 11.886719 11.328125 11.886719 11.46875 11.847656 C 11.613281 11.808594 11.738281 11.742188 11.84375 11.640625 C 11.960938 11.5625 12.0625 11.449219 12.128906 11.324219 L 12.242188 11.058594 C 12.292969 10.855469 12.292969 10.644531 12.242188 10.449219 L 12.128906 10.179688 C 12.03125 10.007812 11.894531 9.871094 11.734375 9.765625 L 11.949219 9.945312 L 12.125 10.167969 L 12.230469 10.449219 L 12.273438 10.753906 L 12.230469 11.058594 L 12.125 11.324219 C 12.207031 11.199219 12.25 11.050781 12.25 10.898438 C 12.292969 10.753906 12.292969 10.597656 12.25 10.449219 C 12.214844 10.304688 12.148438 10.175781 12.050781 10.0625 C 11.976562 9.941406 11.867188 9.839844 11.742188 9.765625 L 11.476562 9.660156 C 11.285156 9.605469 11.085938 9.605469 10.890625 9.660156 L 10.625 9.765625 C 10.460938 9.867188 10.324219 10.007812 10.234375 10.179688 Z M 10.171875 9.960938 "/>
<path style=" stroke:none;fill-rule:nonzero;fill:rgb(88.627451%,77.647059%,62.352941%);fill-opacity:1;" d="M 21.945312 23.675781 C 21.945312 23.675781 20.757812 23.164062 20.777344 23.148438 C 20.71875 23.207031 20.675781 23.269531 20.628906 23.335938 C 20.5 23.464844 20.351562 23.570312 20.191406 23.652344 L 21.882812 24.625 C 21.855469 24.1875 22.011719 23.75 22.304688 23.433594 L 20.460938 22.332031 C 20.339844 22.792969 20.460938 22.460938 20.460938 22.449219 L 20.359375 22.558594 C 20.359375 22.460938 20.425781 22.433594 20.621094 22.480469 L 21.171875 22.628906 C 21.351562 22.6875 21.46875 22.859375 21.476562 23.054688 C 21.476562 23.15625 21.476562 23.140625 21.476562 23.003906 C 21.476562 23.09375 21.261719 23.203125 21.476562 23.085938 C 22 22.765625 22.179688 22.074219 21.875 21.527344 C 21.554688 21.003906 20.886719 20.828125 20.359375 21.128906 C 19.8125 21.417969 19.417969 21.9375 19.285156 22.554688 C 19.15625 23.167969 19.300781 23.8125 19.683594 24.304688 C 20.753906 25.492188 22.277344 24.09375 22.585938 22.941406 C 22.710938 22.445312 22.503906 21.925781 22.074219 21.667969 C 21.644531 21.410156 21.101562 21.480469 20.742188 21.839844 C 20.027344 22.578125 19.640625 23.582031 19.664062 24.625 C 19.664062 25.039062 19.882812 25.417969 20.234375 25.625 C 20.582031 25.828125 21.015625 25.820312 21.363281 25.609375 C 22.367188 25.152344 23.015625 24.128906 23.015625 23.003906 C 22.929688 22.425781 22.546875 21.945312 22.015625 21.75 C 21.484375 21.550781 20.886719 21.671875 20.472656 22.0625 C 19.519531 23.148438 21.082031 24.753906 22.039062 23.667969 Z M 21.945312 23.675781 "/>
<path style=" stroke:none;fill-rule:nonzero;fill:rgb(88.627451%,77.647059%,62.352941%);fill-opacity:1;" d="M 22.886719 22 L 22.789062 21.941406 L 23.300781 22.613281 L 23.300781 22.503906 L 23.300781 23.105469 C 23.171875 23.242188 23.179688 23.234375 23.300781 23.105469 L 23.414062 23.027344 C 23.550781 22.953125 23.707031 22.933594 23.859375 22.964844 C 24.226562 23.0625 24.335938 23.390625 24.386719 23.722656 C 24.550781 24.324219 25.148438 24.675781 25.738281 24.523438 C 26.320312 24.34375 26.664062 23.726562 26.511719 23.121094 C 26.246094 21.570312 24.828125 20.515625 23.3125 20.730469 C 21.921875 20.941406 20.082031 22.800781 21.757812 23.992188 C 22.929688 24.863281 24.035156 22.851562 22.875 22.023438 Z M 22.886719 22 "/>
<path style=" stroke:none;fill-rule:nonzero;fill:rgb(88.627451%,77.647059%,62.352941%);fill-opacity:1;" d="M 22.59375 22.949219 C 23.234375 23.1875 23.8125 23.566406 24.292969 24.0625 L 25.074219 22.125 C 24.332031 22.191406 23.578125 22.109375 22.867188 21.878906 L 22.867188 24.070312 C 23.453125 23.976562 24.050781 24.085938 24.5625 24.382812 C 25.355469 24.695312 26.148438 23.753906 25.917969 22.984375 C 25.78125 22.464844 25.449219 22.023438 24.996094 21.746094 C 23.78125 20.984375 22.664062 22.949219 23.875 23.714844 C 23.863281 23.664062 23.832031 23.613281 23.792969 23.582031 L 25.148438 22.191406 C 24.246094 21.742188 23.21875 21.628906 22.242188 21.878906 C 21.773438 22.027344 21.457031 22.472656 21.457031 22.972656 C 21.457031 23.476562 21.773438 23.921875 22.242188 24.070312 C 23.144531 24.355469 24.089844 24.46875 25.027344 24.390625 C 25.472656 24.375 25.863281 24.101562 26.035156 23.683594 C 26.203125 23.265625 26.113281 22.78125 25.808594 22.449219 C 25.0625 21.691406 24.152344 21.117188 23.15625 20.765625 C 22.570312 20.597656 21.960938 20.949219 21.796875 21.550781 C 21.632812 22.15625 21.976562 22.78125 22.5625 22.949219 Z M 22.59375 22.949219 "/>
<path style=" stroke:none;fill-rule:nonzero;fill:rgb(88.627451%,77.647059%,62.352941%);fill-opacity:1;" d="M 20.824219 20.660156 C 20.429688 20.769531 20.070312 20.996094 19.792969 21.304688 L 21.671875 22.105469 L 21.671875 21.921875 L 21.519531 22.5 C 21.625 22.261719 22.605469 22.023438 22.917969 21.914062 L 21.554688 21.125 C 21.554688 20.945312 21.453125 20.90625 21.363281 21.125 C 21.265625 21.339844 21.234375 21.296875 21.546875 21.410156 C 21.691406 21.6875 21.792969 21.738281 21.859375 21.574219 L 19.832031 21.304688 L 20.171875 20.921875 L 20.957031 22.851562 C 21.410156 22.414062 21.917969 22.03125 22.460938 21.710938 C 22.878906 21.445312 23.078125 20.929688 22.953125 20.441406 C 22.824219 19.957031 22.402344 19.613281 21.910156 19.59375 L 21.308594 19.59375 L 21.871094 21.707031 C 22.339844 21.492188 22.878906 21.523438 23.324219 21.785156 C 24.582031 22.46875 25.699219 20.515625 24.441406 19.820312 C 23.296875 19.179688 21.921875 19.152344 20.753906 19.742188 C 19.707031 20.234375 20.285156 21.84375 21.308594 21.863281 L 21.910156 21.863281 L 21.351562 19.75 C 20.640625 20.167969 19.988281 20.675781 19.394531 21.257812 C 19.089844 21.582031 19 22.0625 19.171875 22.480469 C 19.335938 22.902344 19.730469 23.179688 20.171875 23.1875 C 20.78125 23.230469 21.371094 22.949219 21.734375 22.449219 C 22.101562 21.945312 22.1875 21.285156 21.972656 20.699219 C 21.835938 20.265625 21.472656 19.960938 21.039062 19.902344 C 20.605469 19.84375 20.175781 20.046875 19.945312 20.425781 C 19.285156 21.6875 19.722656 23.453125 21.351562 23.425781 C 22.046875 23.402344 22.703125 23.074219 23.148438 22.527344 C 23.597656 21.976562 23.792969 21.257812 23.691406 20.546875 C 23.523438 19.941406 22.914062 19.59375 22.328125 19.757812 C 21.140625 20.164062 19.480469 20.546875 19.453125 22.128906 C 19.460938 22.582031 19.738281 22.988281 20.148438 23.160156 C 20.554688 23.332031 21.023438 23.242188 21.34375 22.929688 L 21.402344 22.871094 C 22.757812 22.433594 22.179688 20.261719 20.816406 20.6875 Z M 20.824219 20.660156 "/>
<path style=" stroke:none;fill-rule:nonzero;fill:rgb(88.627451%,77.647059%,62.352941%);fill-opacity:1;" d="M 21.816406 21.800781 C 21.273438 22.066406 20.796875 22.445312 20.410156 22.914062 L 19.269531 24.09375 C 18.835938 24.535156 18.835938 25.25 19.269531 25.695312 C 19.699219 26.136719 20.394531 26.136719 20.824219 25.695312 L 21.757812 24.738281 L 22.1875 24.289062 L 22.410156 24.0625 C 22.503906 23.972656 22.710938 23.863281 22.410156 23.992188 C 22.988281 23.804688 23.320312 23.191406 23.179688 22.589844 C 23.015625 21.988281 22.40625 21.640625 21.816406 21.800781 Z M 21.816406 21.800781 "/>
<path style=" stroke:none;fill-rule:nonzero;fill:rgb(88.627451%,77.647059%,62.352941%);fill-opacity:1;" d="M 19.878906 23.320312 C 19.464844 22.898438 18.8125 22.851562 18.347656 23.21875 C 17.882812 23.585938 17.753906 24.253906 18.042969 24.785156 C 18.296875 25.140625 18.578125 25.472656 18.894531 25.773438 C 19.324219 26.214844 20.027344 26.214844 20.460938 25.773438 C 20.875 25.328125 20.875 24.625 20.460938 24.171875 C 20.25 23.929688 20.019531 23.691406 19.816406 23.453125 L 19.996094 23.675781 L 20.148438 24.25 L 20.148438 24.195312 L 20.148438 24.507812 L 19.863281 25.003906 L 19.371094 25.296875 L 19.082031 25.335938 L 18.292969 25.011719 C 18.726562 25.449219 19.421875 25.449219 19.851562 25.011719 C 20.277344 24.566406 20.277344 23.847656 19.851562 23.40625 Z M 19.878906 23.320312 "/>
<path style=" stroke:none;fill-rule:nonzero;fill:rgb(88.627451%,77.647059%,62.352941%);fill-opacity:1;" d="M 19.496094 24.753906 L 20.097656 23.722656 C 20.402344 23.183594 20.226562 22.488281 19.699219 22.171875 C 19.171875 21.863281 18.496094 22.042969 18.191406 22.582031 L 17.578125 23.609375 C 17.28125 24.152344 17.457031 24.84375 17.976562 25.167969 C 18.507812 25.460938 19.175781 25.285156 19.496094 24.753906 Z M 19.496094 24.753906 "/>
<path style=" stroke:none;fill-rule:nonzero;fill:rgb(88.627451%,77.647059%,62.352941%);fill-opacity:1;" d="M 20.273438 24.304688 L 20.082031 24.304688 C 19.640625 24.324219 19.257812 24.605469 19.085938 25.015625 C 18.917969 25.433594 19.003906 25.910156 19.300781 26.242188 C 20.46875 27.515625 21.761719 28.65625 23.15625 29.660156 C 24.316406 30.527344 25.429688 28.53125 24.265625 27.695312 C 23.039062 26.796875 21.898438 25.773438 20.878906 24.632812 L 20.089844 26.570312 L 20.285156 26.570312 C 20.886719 26.554688 21.371094 26.054688 21.386719 25.433594 C 21.382812 24.8125 20.886719 24.308594 20.285156 24.304688 Z M 20.273438 24.304688 "/>
<path style=" stroke:none;fill-rule:nonzero;fill:rgb(88.627451%,77.647059%,62.352941%);fill-opacity:1;" d="M 21.898438 23.007812 L 21.613281 23.007812 C 21.289062 23.109375 21.023438 23.355469 20.894531 23.683594 C 20.765625 24.007812 20.785156 24.371094 20.957031 24.675781 C 21.46875 25.691406 22.058594 26.65625 22.726562 27.574219 C 23.28125 28.5 24.007812 29.300781 24.867188 29.9375 C 25.210938 30.148438 25.640625 30.148438 25.988281 29.9375 L 26.074219 29.875 C 26.492188 29.601562 26.695312 29.082031 26.582031 28.589844 L 26.582031 28.5 C 26.367188 27.058594 24.234375 27.632812 24.441406 29.105469 L 24.441406 29.199219 L 24.949219 27.917969 L 24.859375 27.980469 L 25.980469 27.980469 C 25.292969 27.398438 24.71875 26.699219 24.285156 25.90625 C 23.769531 25.144531 23.300781 24.351562 22.890625 23.53125 L 22.234375 25.195312 L 22.511719 25.15625 C 23.910156 24.9375 23.359375 22.753906 21.929688 22.964844 Z M 21.898438 23.007812 "/>
<path style=" stroke:none;fill-rule:nonzero;fill:rgb(88.627451%,77.647059%,62.352941%);fill-opacity:1;" d="M 23.894531 24.09375 C 23.824219 24.023438 23.773438 23.925781 23.757812 23.824219 L 21.910156 24.933594 C 23.4375 26.171875 24.453125 27.929688 25.996094 29.144531 C 26.398438 29.476562 26.96875 29.476562 27.375 29.144531 C 27.773438 28.816406 27.910156 28.253906 27.6875 27.773438 L 27.558594 27.46875 C 26.960938 26.148438 25.011719 27.292969 25.648438 28.617188 L 25.785156 28.921875 L 27.480469 27.546875 C 25.9375 26.320312 24.9375 24.566406 23.398438 23.328125 C 22.59375 22.683594 21.183594 23.242188 21.546875 24.433594 C 21.679688 24.90625 21.921875 25.335938 22.25 25.695312 C 23.191406 26.789062 24.792969 25.183594 23.808594 24.09375 Z M 23.894531 24.09375 "/>
<path style=" stroke:none;fill-rule:nonzero;fill:rgb(88.627451%,77.647059%,62.352941%);fill-opacity:1;" d="M 24.9375 23.910156 L 24.65625 23.511719 L 22.960938 24.886719 C 23.96875 25.90625 24.980469 26.902344 25.996094 27.914062 C 27.011719 28.921875 28.597656 27.3125 27.5625 26.304688 L 24.519531 23.289062 C 23.671875 22.421875 22.03125 23.582031 22.785156 24.664062 L 23.0625 25.058594 C 23.386719 25.585938 24.050781 25.757812 24.582031 25.460938 C 25.097656 25.140625 25.277344 24.457031 24.980469 23.910156 Z M 24.9375 23.910156 "/>
<path style=" stroke:none;fill-rule:nonzero;fill:rgb(88.627451%,77.647059%,62.352941%);fill-opacity:1;" d="M 24.046875 24.328125 C 24.480469 25.871094 25.738281 26.878906 26.285156 28.34375 C 26.824219 29.816406 28.910156 29.113281 28.414062 27.738281 C 27.910156 26.359375 26.597656 25.207031 26.183594 23.722656 C 25.992188 23.152344 25.402344 22.832031 24.835938 22.992188 C 24.269531 23.15625 23.925781 23.742188 24.046875 24.328125 Z M 24.046875 24.328125 "/>
<path style=" stroke:none;fill-rule:nonzero;fill:rgb(88.627451%,77.647059%,62.352941%);fill-opacity:1;" d="M 24.054688 27.78125 L 27.726562 32.21875 C 28.648438 33.328125 30.207031 31.710938 29.289062 30.605469 L 25.621094 26.171875 C 24.699219 25.058594 23.140625 26.671875 24.054688 27.78125 Z M 24.054688 27.78125 "/>
<path style=" stroke:none;fill-rule:nonzero;fill:rgb(88.627451%,77.647059%,62.352941%);fill-opacity:1;" d="M 25.429688 26.6875 L 25.191406 26.488281 C 24.339844 25.730469 22.648438 26.75 23.5 27.859375 C 24.777344 29.648438 25.960938 31.722656 27.734375 33.074219 C 28.878906 33.945312 29.976562 31.980469 28.851562 31.121094 C 27.4375 30.042969 26.453125 28.175781 25.464844 26.773438 L 23.765625 28.144531 L 24.007812 28.34375 C 25.089844 29.277344 26.65625 27.679688 25.566406 26.738281 Z M 25.429688 26.6875 "/>
<path style=" stroke:none;fill-rule:nonzero;fill:rgb(88.627451%,77.647059%,62.352941%);fill-opacity:1;" d="M 20.402344 25.660156 C 20.097656 25.855469 19.960938 26.230469 20.066406 26.582031 C 20.183594 27.152344 20.230469 27.734375 20.207031 28.320312 L 20.832031 28.058594 C 20.746094 28.023438 20.699219 27.929688 20.714844 27.835938 C 20.800781 27.355469 20.097656 27.152344 20.003906 27.632812 C 19.917969 27.984375 20.035156 28.359375 20.308594 28.589844 C 20.417969 28.691406 20.574219 28.71875 20.710938 28.660156 C 20.84375 28.605469 20.9375 28.472656 20.945312 28.320312 C 20.984375 27.933594 20.984375 27.535156 20.945312 27.148438 C 20.867188 26.859375 20.820312 26.570312 20.800781 26.277344 C 20.941406 26.15625 20.980469 25.949219 20.882812 25.789062 C 20.792969 25.625 20.597656 25.554688 20.425781 25.625 Z M 20.402344 25.660156 "/>
<path style=" stroke:none;fill-rule:nonzero;fill:rgb(88.627451%,77.647059%,62.352941%);fill-opacity:1;" d="M 19.964844 27.222656 C 19.769531 27.722656 19.542969 28.207031 19.277344 28.664062 L 19.953125 28.757812 C 19.804688 28.363281 19.828125 27.921875 20.011719 27.546875 L 19.300781 27.347656 C 19.222656 27.871094 19.054688 28.375 18.816406 28.84375 L 19.503906 29.035156 C 19.484375 28.5 19.558594 27.964844 19.722656 27.460938 L 18.996094 27.355469 L 18.792969 28.136719 L 19.480469 28.332031 C 19.507812 27.855469 19.640625 27.390625 19.867188 26.972656 L 19.183594 26.78125 L 19.183594 27.167969 C 19.183594 27.617188 19.765625 27.632812 19.902344 27.257812 L 20.113281 26.6875 L 19.402344 26.6875 L 19.878906 29.144531 L 20.410156 28.71875 C 20.019531 28.53125 19.460938 28.34375 19.15625 28.824219 C 18.753906 29.449219 19.542969 29.925781 19.925781 30.261719 C 20.308594 30.585938 20.777344 30.054688 20.449219 29.726562 L 19.84375 29.191406 L 19.402344 29.78125 C 20.03125 30.257812 20.714844 30.65625 21.4375 30.96875 C 21.792969 31.128906 22.199219 30.703125 21.875 30.371094 C 21.375 29.863281 20.910156 29.316406 20.476562 28.746094 L 20.027344 29.34375 C 21.070312 30.042969 22.148438 30.683594 23.257812 31.269531 C 23.617188 31.457031 24.035156 30.96875 23.707031 30.675781 C 22.714844 29.839844 21.777344 28.9375 20.902344 27.972656 L 20.453125 28.5625 L 24.265625 31.167969 C 24.421875 31.25 24.617188 31.207031 24.726562 31.0625 C 24.835938 30.921875 24.828125 30.71875 24.71875 30.582031 L 21.324219 27.355469 L 20.878906 27.957031 L 24.980469 31.128906 C 25.351562 31.417969 25.714844 30.765625 25.34375 30.464844 C 24.4375 29.765625 23.585938 28.992188 22.796875 28.144531 L 22.359375 28.746094 C 23.609375 29.484375 24.753906 30.402344 25.75 31.476562 L 26.105469 30.851562 L 25.917969 30.765625 C 25.480469 30.570312 25.292969 31.300781 25.714844 31.496094 L 25.910156 31.570312 C 26.277344 31.726562 26.503906 31.1875 26.277344 30.945312 C 25.226562 29.820312 24.03125 28.859375 22.714844 28.082031 C 22.554688 27.996094 22.351562 28.039062 22.238281 28.183594 C 22.128906 28.339844 22.140625 28.546875 22.265625 28.683594 C 23.109375 29.578125 24.023438 30.398438 24.996094 31.128906 L 25.355469 30.464844 L 21.1875 27.292969 C 20.859375 27.042969 20.433594 27.609375 20.742188 27.894531 L 24.132812 31.109375 L 24.582031 30.519531 L 20.765625 27.914062 C 20.402344 27.671875 20.046875 28.199219 20.316406 28.5 C 21.199219 29.464844 22.132812 30.371094 23.121094 31.21875 L 23.570312 30.617188 C 22.464844 30.03125 21.386719 29.386719 20.339844 28.683594 C 19.964844 28.433594 19.660156 28.972656 19.894531 29.285156 C 20.328125 29.859375 20.800781 30.402344 21.300781 30.910156 L 21.742188 30.320312 C 21.027344 30 20.351562 29.601562 19.714844 29.128906 C 19.378906 28.875 18.953125 29.441406 19.269531 29.726562 L 19.867188 30.261719 L 20.386719 29.726562 C 20.25 29.609375 19.402344 29.082031 19.988281 29.371094 C 20.117188 29.441406 20.273438 29.425781 20.386719 29.335938 C 20.5 29.242188 20.554688 29.09375 20.519531 28.945312 L 20.054688 26.488281 C 19.980469 26.089844 19.460938 26.171875 19.339844 26.488281 L 19.132812 27.058594 L 19.863281 27.167969 L 19.863281 26.78125 C 19.851562 26.617188 19.742188 26.472656 19.585938 26.429688 C 19.425781 26.382812 19.257812 26.449219 19.175781 26.59375 C 18.90625 27.132812 18.742188 27.722656 18.683594 28.332031 C 18.6875 28.496094 18.800781 28.636719 18.953125 28.683594 C 19.113281 28.726562 19.28125 28.660156 19.371094 28.519531 C 19.535156 28.15625 19.636719 27.757812 19.675781 27.355469 C 19.722656 26.914062 19.074219 26.867188 18.953125 27.253906 C 18.769531 27.8125 18.6875 28.398438 18.707031 28.992188 C 18.707031 29.339844 19.222656 29.527344 19.394531 29.183594 C 19.664062 28.65625 19.851562 28.089844 19.953125 27.5 C 19.972656 27.3125 19.863281 27.136719 19.683594 27.089844 C 19.503906 27.039062 19.316406 27.128906 19.238281 27.304688 C 19.046875 27.816406 19.027344 28.382812 19.183594 28.914062 C 19.21875 29.058594 19.335938 29.171875 19.484375 29.191406 C 19.636719 29.210938 19.777344 29.136719 19.851562 29.003906 C 20.148438 28.492188 20.40625 27.945312 20.613281 27.382812 C 20.78125 26.929688 20.070312 26.730469 19.902344 27.179688 Z M 19.964844 27.222656 "/>
<path style=" stroke:none;fill-rule:nonzero;fill:rgb(88.627451%,77.647059%,62.352941%);fill-opacity:1;" d="M 23.3125 29.425781 C 24.15625 30.121094 25.960938 31.164062 26.308594 32.292969 L 26.851562 31.867188 C 25.449219 31.222656 24.117188 30.425781 22.886719 29.484375 L 22.511719 30.136719 C 23.84375 30.878906 25.125 31.710938 26.34375 32.632812 L 26.707031 31.980469 C 25.308594 31.363281 23.96875 30.617188 22.710938 29.742188 L 22.335938 30.398438 C 23.457031 31.027344 24.53125 31.742188 25.546875 32.535156 L 25.824219 31.851562 C 24.332031 31.238281 22.914062 30.453125 21.589844 29.511719 C 21.25 29.265625 20.824219 29.824219 21.140625 30.113281 C 22.339844 31.109375 23.636719 31.984375 25.003906 32.722656 L 25.378906 32.066406 C 24.132812 31.53125 22.925781 30.902344 21.769531 30.179688 L 21.390625 30.835938 C 22.402344 31.449219 23.398438 32.09375 24.359375 32.78125 L 24.734375 32.128906 C 23.707031 31.527344 22.65625 30.988281 21.578125 30.496094 C 21.40625 30.402344 21.1875 30.46875 21.089844 30.644531 C 20.996094 30.820312 21.042969 31.042969 21.207031 31.15625 L 23.960938 32.945312 L 24.335938 32.292969 C 23.363281 31.789062 22.359375 31.363281 21.324219 31.015625 C 21.214844 30.984375 21.097656 31.007812 21.007812 31.082031 C 20.914062 31.15625 20.859375 31.265625 20.859375 31.378906 C 20.816406 31.703125 20.929688 32.027344 21.164062 32.25 L 21.613281 31.648438 C 21.289062 31.4375 20.875 31.4375 20.550781 31.648438 L 21.085938 31.878906 L 21.046875 31.285156 L 20.316406 31.386719 L 20.316406 32.101562 L 20.960938 32.101562 C 20.71875 31.722656 20.628906 31.25 20.714844 30.804688 L 20.027344 31 L 20.027344 31.9375 L 20.675781 31.9375 L 20.792969 30.570312 L 20.113281 30.480469 L 19.964844 31.878906 L 20.640625 31.960938 C 20.457031 31.539062 20.488281 31.050781 20.714844 30.648438 L 20.046875 30.738281 L 20.097656 31.496094 L 20.765625 31.40625 L 20.519531 30.851562 C 20.433594 30.433594 19.800781 30.535156 19.800781 30.957031 L 19.800781 31.660156 L 20.496094 31.464844 L 20.496094 31.242188 L 19.785156 31.242188 C 19.894531 31.589844 19.988281 31.953125 20.054688 32.320312 C 20.085938 32.449219 20.183594 32.546875 20.308594 32.582031 C 20.765625 32.667969 21.207031 32.828125 21.613281 33.054688 L 21.898438 32.371094 L 21.113281 32.101562 L 21.011719 32.851562 C 21.597656 32.832031 22.183594 32.964844 22.710938 33.25 L 22.992188 32.566406 C 22.464844 32.484375 21.949219 32.328125 21.464844 32.09375 L 21.273438 32.800781 C 22.207031 32.804688 23.136719 33.003906 23.996094 33.382812 L 24.273438 32.691406 C 23.480469 32.558594 22.722656 32.261719 22.039062 31.824219 L 21.757812 32.511719 C 22.730469 32.78125 23.6875 33.105469 24.621094 33.484375 L 24.820312 32.753906 C 23.941406 32.582031 23.074219 32.351562 22.226562 32.066406 L 22.03125 32.800781 C 23.449219 33.308594 24.992188 33.347656 26.433594 32.902344 C 26.605469 32.828125 26.695312 32.632812 26.648438 32.449219 C 26.597656 32.265625 26.425781 32.144531 26.242188 32.171875 C 25.78125 32.320312 25.292969 32.382812 24.808594 32.347656 L 24.808594 33.101562 C 25.617188 33.066406 26.40625 32.839844 27.113281 32.441406 C 27.257812 32.324219 27.292969 32.113281 27.199219 31.949219 C 27.109375 31.789062 26.914062 31.722656 26.746094 31.789062 C 26.148438 32.132812 25.488281 32.328125 24.808594 32.347656 C 24.351562 32.398438 24.328125 33.101562 24.808594 33.101562 C 25.355469 33.105469 25.902344 33.042969 26.433594 32.902344 L 26.242188 32.171875 C 24.925781 32.578125 23.519531 32.542969 22.226562 32.066406 C 22.039062 32.042969 21.871094 32.164062 21.820312 32.347656 C 21.773438 32.527344 21.859375 32.722656 22.03125 32.800781 C 22.878906 33.082031 23.746094 33.308594 24.621094 33.484375 C 24.804688 33.507812 24.980469 33.386719 25.027344 33.203125 C 25.078125 33.023438 24.988281 32.832031 24.820312 32.753906 C 23.882812 32.371094 22.925781 32.050781 21.953125 31.789062 C 21.777344 31.75 21.609375 31.847656 21.539062 32.011719 C 21.46875 32.179688 21.523438 32.371094 21.667969 32.472656 C 22.402344 32.949219 23.21875 33.269531 24.078125 33.414062 C 24.453125 33.472656 24.785156 32.902344 24.359375 32.722656 C 23.382812 32.285156 22.335938 32.050781 21.273438 32.03125 C 20.925781 32.03125 20.753906 32.570312 21.085938 32.734375 C 21.628906 32.992188 22.199219 33.179688 22.785156 33.285156 C 23.15625 33.34375 23.460938 32.804688 23.0625 32.589844 C 22.429688 32.230469 21.710938 32.058594 20.984375 32.085938 C 20.796875 32.078125 20.632812 32.21875 20.609375 32.410156 C 20.582031 32.601562 20.707031 32.78125 20.894531 32.824219 L 21.679688 33.085938 C 21.859375 33.144531 22.054688 33.046875 22.125 32.871094 C 22.199219 32.691406 22.128906 32.488281 21.960938 32.398438 C 21.113281 31.9375 20.78125 32.011719 20.472656 31.03125 C 20.421875 30.871094 20.273438 30.765625 20.113281 30.765625 C 19.949219 30.765625 19.808594 30.871094 19.761719 31.03125 C 19.636719 31.300781 19.675781 31.617188 19.867188 31.84375 C 19.953125 31.984375 20.121094 32.046875 20.277344 32.003906 C 20.4375 31.960938 20.550781 31.820312 20.554688 31.648438 L 20.554688 30.945312 L 19.824219 31.050781 C 19.847656 31.324219 19.964844 31.582031 20.148438 31.78125 C 20.230469 31.90625 20.375 31.96875 20.515625 31.949219 C 20.660156 31.929688 20.78125 31.828125 20.824219 31.683594 C 21.007812 31.246094 20.960938 30.742188 20.699219 30.347656 C 20.621094 30.214844 20.476562 30.144531 20.328125 30.164062 C 20.183594 30.1875 20.0625 30.296875 20.019531 30.441406 C 19.777344 30.988281 19.75 31.613281 19.945312 32.179688 C 20.027344 32.472656 20.476562 32.582031 20.613281 32.277344 C 20.933594 31.667969 21.015625 30.960938 20.84375 30.296875 C 20.777344 29.945312 20.339844 29.960938 20.171875 30.207031 C 19.691406 30.816406 19.640625 31.667969 20.046875 32.332031 C 20.113281 32.453125 20.234375 32.527344 20.371094 32.527344 C 20.5 32.527344 20.625 32.453125 20.691406 32.332031 C 21.039062 31.828125 21.039062 31.148438 20.691406 30.640625 C 20.605469 30.503906 20.4375 30.4375 20.285156 30.480469 C 20.125 30.519531 20.011719 30.660156 20.003906 30.824219 C 19.945312 31.40625 20.066406 31.988281 20.339844 32.503906 C 20.414062 32.613281 20.535156 32.683594 20.664062 32.683594 C 20.796875 32.683594 20.917969 32.613281 20.984375 32.503906 C 21.21875 32.109375 21.242188 31.621094 21.058594 31.207031 C 21.015625 31.015625 20.839844 30.886719 20.65625 30.910156 C 20.460938 30.9375 20.324219 31.109375 20.332031 31.300781 C 20.300781 31.570312 20.324219 31.84375 20.402344 32.101562 C 20.433594 32.21875 20.515625 32.304688 20.621094 32.351562 C 20.726562 32.390625 20.84375 32.382812 20.945312 32.328125 L 21.265625 32.328125 C 21.425781 32.410156 21.617188 32.363281 21.726562 32.222656 C 21.835938 32.078125 21.832031 31.878906 21.714844 31.738281 L 21.625 31.371094 L 21.160156 31.738281 C 22.128906 32.066406 23.070312 32.46875 23.988281 32.9375 C 24.160156 33.007812 24.355469 32.9375 24.441406 32.773438 C 24.539062 32.609375 24.5 32.40625 24.359375 32.285156 L 21.605469 30.484375 L 21.234375 31.144531 C 22.304688 31.632812 23.359375 32.179688 24.386719 32.769531 C 24.558594 32.839844 24.753906 32.773438 24.84375 32.609375 C 24.9375 32.445312 24.898438 32.238281 24.757812 32.121094 C 23.792969 31.433594 22.796875 30.789062 21.792969 30.167969 C 21.621094 30.101562 21.425781 30.167969 21.332031 30.335938 C 21.238281 30.5 21.273438 30.703125 21.417969 30.824219 C 22.574219 31.542969 23.78125 32.171875 25.027344 32.710938 C 25.453125 32.890625 25.824219 32.304688 25.402344 32.0625 C 24.085938 31.351562 22.84375 30.515625 21.691406 29.554688 L 21.242188 30.144531 C 22.621094 31.117188 24.105469 31.929688 25.65625 32.566406 C 26.082031 32.734375 26.242188 32.101562 25.941406 31.867188 C 24.925781 31.070312 23.855469 30.359375 22.734375 29.726562 C 22.5625 29.660156 22.367188 29.726562 22.277344 29.894531 C 22.179688 30.054688 22.21875 30.261719 22.359375 30.378906 C 23.625 31.25 24.96875 32.003906 26.367188 32.613281 C 26.546875 32.714844 26.769531 32.652344 26.871094 32.472656 C 26.972656 32.292969 26.910156 32.066406 26.730469 31.960938 C 25.515625 31.039062 24.238281 30.207031 22.914062 29.46875 C 22.742188 29.398438 22.546875 29.464844 22.453125 29.628906 C 22.359375 29.792969 22.398438 30.003906 22.539062 30.121094 C 23.769531 31.0625 25.101562 31.859375 26.503906 32.503906 C 26.773438 32.621094 27.15625 32.410156 27.050781 32.078125 C 26.621094 30.738281 24.867188 29.714844 23.851562 28.867188 C 23.484375 28.5625 23.007812 29.09375 23.335938 29.40625 Z M 23.3125 29.425781 "/>
<path style=" stroke:none;fill-rule:nonzero;fill:rgb(88.627451%,77.647059%,62.352941%);fill-opacity:1;" d="M 26.316406 28.9375 L 26.003906 28.9375 C 25.875 28.941406 25.753906 29.011719 25.6875 29.125 C 25.621094 29.242188 25.617188 29.382812 25.683594 29.503906 C 26.257812 30.480469 26.9375 31.386719 27.714844 32.207031 C 28.054688 32.566406 28.5625 32.039062 28.234375 31.675781 C 27.808594 31.128906 25.988281 28.964844 26.378906 28.070312 L 25.800781 28.144531 C 26.621094 28.941406 27.246094 29.921875 27.632812 31.007812 L 28.296875 30.710938 C 27.242188 29.292969 26.5 27.652344 26.113281 25.910156 L 25.496094 26.277344 C 26.257812 26.964844 26.792969 27.875 27.027344 28.882812 C 27.4375 30.746094 26.0625 30.480469 25.074219 29.609375 C 24.757812 29.339844 24.226562 28.511719 23.730469 28.546875 C 22.664062 28.617188 22.445312 32.207031 21.59375 29.640625 C 21.554688 29.476562 21.410156 29.367188 21.246094 29.367188 C 21.082031 29.367188 20.9375 29.476562 20.894531 29.640625 C 20.742188 30.183594 20.621094 30.730469 20.527344 31.285156 L 21.261719 31.378906 L 21.261719 30 C 21.261719 29.503906 20.574219 29.527344 20.519531 30 L 20.332031 31.613281 L 21.070312 31.613281 L 21.070312 31.164062 C 21.070312 30.746094 20.589844 30.710938 20.386719 30.96875 L 20.171875 31.269531 L 20.859375 31.457031 L 20.859375 30.9375 C 20.859375 30.527344 20.222656 30.398438 20.128906 30.835938 C 20.09375 31.167969 19.996094 31.5 19.84375 31.800781 L 20.550781 32 C 20.792969 30.636719 21.148438 30.339844 21.625 31.128906 L 21.875 30.480469 L 21.511719 30.648438 L 22.011719 30.136719 C 21.3125 29.6875 20.828125 28.949219 20.691406 28.113281 L 20.019531 28.398438 L 21.214844 30.277344 C 21.46875 30.683594 22.0625 30.277344 21.851562 29.894531 C 21.261719 28.9375 20.707031 28.035156 21.0625 26.816406 L 20.453125 26.980469 C 21.410156 27.917969 22.765625 29.988281 24.234375 29.875 C 24.394531 29.871094 24.539062 29.761719 24.589844 29.597656 C 25.089844 28.355469 24.589844 27.128906 24.214844 25.894531 C 24.109375 25.566406 24.027344 25.230469 23.953125 24.894531 C 24.054688 23.488281 24.335938 23.25 24.800781 24.191406 C 25.484375 24.851562 26.082031 25.605469 26.570312 26.425781 C 26.847656 26.753906 27.378906 26.320312 27.15625 25.964844 L 25.636719 23.558594 C 25.429688 23.210938 24.792969 23.421875 24.972656 23.84375 C 26.148438 27.320312 29.03125 29.804688 30.304688 33.25 L 30.980469 32.964844 L 30.128906 30.929688 C 29.945312 30.480469 29.285156 30.867188 29.496094 31.300781 L 30.34375 33.34375 C 30.507812 33.730469 31.191406 33.449219 31.015625 33.046875 C 29.742188 29.574219 26.859375 27.128906 25.675781 23.644531 L 25.003906 23.929688 L 26.519531 26.347656 L 27.097656 25.886719 L 24.4375 22.550781 C 24.316406 22.425781 24.132812 22.402344 23.988281 22.488281 C 23.246094 22.96875 22.898438 23.890625 23.140625 24.753906 C 23.222656 25.476562 24.136719 27.167969 23.921875 27.757812 C 23.273438 29.496094 21.492188 27.019531 20.910156 26.453125 C 20.816406 26.359375 20.679688 26.320312 20.554688 26.355469 C 20.429688 26.386719 20.328125 26.492188 20.292969 26.617188 C 19.886719 27.996094 20.425781 29.113281 21.140625 30.277344 L 21.773438 29.894531 L 20.578125 28.023438 C 20.480469 27.871094 20.292969 27.8125 20.125 27.878906 C 19.960938 27.949219 19.867188 28.132812 19.902344 28.3125 C 20.148438 29.324219 20.753906 30.207031 21.59375 30.789062 C 21.910156 31.03125 22.25 30.582031 22.097656 30.277344 C 20.902344 27.859375 19.003906 31.1875 21.828125 31.230469 C 21.976562 31.226562 22.101562 31.140625 22.160156 31 C 22.21875 30.859375 22.1875 30.699219 22.085938 30.585938 L 21.402344 29.835938 C 21.332031 29.761719 21.242188 29.722656 21.144531 29.722656 C 21.046875 29.722656 20.957031 29.761719 20.882812 29.835938 C 20.398438 30.417969 20.023438 31.089844 19.792969 31.824219 C 19.628906 32.292969 20.316406 32.460938 20.496094 32.023438 C 20.65625 31.722656 20.753906 31.398438 20.792969 31.0625 L 20.070312 30.960938 L 20.070312 31.484375 C 20.074219 31.648438 20.191406 31.792969 20.347656 31.839844 C 20.503906 31.882812 20.671875 31.820312 20.757812 31.675781 L 20.96875 31.378906 L 20.285156 31.1875 L 20.285156 31.644531 C 20.285156 32.140625 20.960938 32.109375 21.019531 31.644531 L 21.207031 30.023438 L 20.472656 30.023438 L 20.472656 31.40625 C 20.472656 31.824219 21.113281 31.945312 21.1875 31.511719 C 21.285156 30.945312 21.402344 30.417969 21.546875 29.867188 L 20.84375 29.867188 C 21.070312 30.621094 21.488281 31.300781 22.046875 31.84375 C 22.195312 31.988281 22.425781 31.988281 22.570312 31.84375 C 22.871094 31.578125 23.101562 31.246094 23.257812 30.878906 C 23.726562 29.867188 23.414062 29.5625 24.496094 30.167969 C 25.582031 30.78125 25.988281 31.582031 27.207031 31.519531 C 27.335938 31.515625 27.457031 31.441406 27.519531 31.328125 C 28.421875 29.425781 27.34375 27.148438 25.960938 25.816406 C 25.84375 25.695312 25.660156 25.671875 25.515625 25.753906 C 25.375 25.839844 25.304688 26.015625 25.351562 26.179688 C 25.753906 27.992188 26.523438 29.6875 27.613281 31.164062 C 27.835938 31.496094 28.460938 31.292969 28.28125 30.867188 C 27.863281 29.660156 27.171875 28.566406 26.265625 27.679688 C 26.1875 27.597656 26.074219 27.558594 25.960938 27.574219 C 25.851562 27.589844 25.75 27.65625 25.691406 27.757812 C 25.023438 29.292969 26.773438 31.140625 27.664062 32.277344 L 28.179688 31.746094 C 27.457031 30.96875 26.808594 30.113281 26.265625 29.191406 L 25.957031 29.765625 L 26.265625 29.765625 C 26.449219 29.738281 26.585938 29.578125 26.585938 29.382812 C 26.585938 29.195312 26.449219 29.035156 26.265625 29.003906 Z M 26.316406 28.9375 "/>
<path style=" stroke:none;fill-rule:nonzero;fill:rgb(34.117647%,58.823529%,52.156863%);fill-opacity:1;" d="M 46.726562 33.046875 C 46.726562 33.046875 38.53125 39.679688 33.554688 40.875 C 33.554688 40.875 34.242188 44.644531 36.425781 45.878906 C 36.597656 45.960938 36.777344 46.007812 36.960938 46.011719 C 37.265625 45.777344 37.640625 45.652344 38.023438 45.660156 C 38.785156 45.429688 39.554688 45.210938 40.308594 44.960938 C 40.867188 44.667969 41.4375 44.394531 42.007812 44.089844 L 43.320312 43.464844 L 43.597656 43.324219 C 43.628906 43.113281 43.8125 42.96875 44.015625 42.984375 C 44.121094 42.984375 44.355469 42.820312 44.464844 42.773438 L 44.675781 42.699219 C 44.773438 42.621094 44.878906 42.550781 44.988281 42.488281 C 45.082031 42.269531 45.25 42.09375 45.457031 41.984375 C 45.625 41.859375 45.816406 41.765625 46.023438 41.710938 C 46.070312 41.691406 46.125 41.691406 46.171875 41.710938 L 46.351562 41.710938 C 46.578125 41.578125 46.792969 41.402344 47.03125 41.269531 C 47.082031 41.265625 47.125 41.265625 47.171875 41.269531 C 49.285156 39.847656 50.910156 38.476562 51.175781 37.796875 C 51.183594 37.722656 47.566406 33.242188 46.726562 33.046875 Z M 46.726562 33.046875 "/>
<path style=" stroke:none;fill-rule:nonzero;fill:rgb(1.568627%,0%,0%);fill-opacity:1;" d="M 46.855469 41.105469 L 46.5625 41.269531 C 46.699219 41.234375 46.824219 41.160156 46.929688 41.066406 Z M 46.855469 41.105469 "/>
<path style=" stroke:none;fill-rule:nonzero;fill:rgb(1.568627%,0%,0%);fill-opacity:1;" d="M 37.785156 45.835938 C 37.867188 45.808594 37.957031 45.808594 38.039062 45.835938 C 38.128906 45.789062 38.226562 45.746094 38.328125 45.707031 C 38.058594 45.722656 37.789062 45.777344 37.53125 45.859375 L 37.621094 45.859375 Z M 37.785156 45.835938 "/>
<path style=" stroke:none;fill-rule:nonzero;fill:rgb(1.568627%,0%,0%);fill-opacity:1;" d="M 46.046875 33.996094 C 46.171875 33.871094 46.296875 33.753906 46.429688 33.644531 L 46.71875 33.054688 C 45.964844 33.441406 45.605469 33.054688 45.207031 32.644531 C 43.609375 31.046875 41.863281 29.613281 40.003906 28.34375 C 38.578125 27.414062 37.234375 26.355469 36.007812 25.167969 C 34.828125 23.964844 33.632812 22.753906 32.519531 21.496094 C 31.410156 20.234375 30.171875 18.703125 29.046875 17.269531 C 28.617188 16.695312 28.027344 16.273438 27.355469 16.058594 C 26.648438 15.84375 25.960938 15.59375 25.277344 15.3125 C 24.589844 15.035156 23.851562 14.679688 23.140625 14.363281 C 19.910156 12.917969 16.691406 11.464844 13.449219 10.007812 C 12.628906 9.640625 11.777344 9.320312 10.910156 9.054688 C 10.507812 8.976562 10.097656 8.996094 9.707031 9.109375 C 9.511719 9.136719 9.347656 9.253906 9.238281 9.417969 C 9.132812 9.578125 9.101562 9.785156 9.148438 9.976562 C 9.160156 10.199219 9.21875 10.414062 9.304688 10.613281 C 9.691406 11.488281 10.347656 12.21875 11.171875 12.671875 C 13.996094 14.183594 16.796875 15.714844 19.644531 17.238281 C 19.847656 17.3125 20.035156 17.417969 20.199219 17.558594 C 20.339844 17.714844 20.535156 17.808594 20.742188 17.828125 C 21.523438 17.996094 22.199219 18.511719 22.570312 19.238281 C 22.199219 19.238281 21.929688 19.238281 21.65625 19.238281 C 21.039062 19.214844 20.453125 19.503906 20.097656 20.015625 C 19.777344 20.488281 19.417969 20.929688 19.074219 21.382812 C 18.726562 21.839844 18.34375 22.320312 18.003906 22.808594 C 17.886719 23.023438 17.796875 23.25 17.738281 23.488281 C 18.234375 23.183594 18.425781 22.613281 18.871094 22.34375 L 19.902344 24.390625 L 19.597656 24.792969 C 20.066406 24.613281 20.128906 24.445312 19.945312 24.003906 L 19.238281 22.359375 C 19.113281 22.089844 19.15625 21.777344 19.351562 21.558594 C 19.675781 21.128906 19.933594 20.6875 20.257812 20.253906 C 20.476562 20.003906 20.714844 19.761719 20.960938 19.542969 C 21.132812 19.644531 21.261719 19.78125 21.324219 19.757812 C 22.019531 19.558594 22.742188 19.488281 23.460938 19.546875 C 24.277344 19.6875 25.109375 19.6875 25.925781 19.546875 C 27.128906 19.15625 28.4375 19.355469 29.476562 20.078125 C 29.847656 20.316406 30.230469 20.519531 30.632812 20.699219 C 30.734375 20.71875 30.839844 20.71875 30.941406 20.699219 L 30.941406 20.589844 L 28.28125 19.15625 L 28.445312 18.558594 C 27.945312 18.734375 27.597656 19.347656 27.105469 18.890625 C 27.105469 18.402344 27.519531 18.019531 27.359375 17.453125 C 27.210938 17.757812 27.078125 18.074219 26.976562 18.402344 C 26.757812 19.0625 26.714844 19.078125 26.058594 19.027344 C 25.738281 18.957031 25.410156 18.957031 25.097656 19.027344 C 24.578125 19.1875 24.035156 19.253906 23.5 19.21875 C 23.15625 19.265625 22.824219 19.101562 22.648438 18.800781 C 22.222656 18.148438 21.574219 17.679688 20.832031 17.480469 C 20.710938 17.441406 20.59375 17.390625 20.476562 17.320312 L 16.125 14.949219 L 11.238281 12.34375 C 10.472656 11.910156 9.871094 11.226562 9.546875 10.398438 C 9.277344 9.765625 9.492188 9.386719 10.164062 9.371094 C 10.597656 9.351562 11.03125 9.421875 11.4375 9.566406 C 12.496094 9.996094 13.535156 10.5 14.585938 10.960938 L 24.757812 15.476562 C 25.191406 15.671875 25.605469 15.941406 26.027344 16.132812 C 26.769531 16.4375 27.519531 16.707031 28.269531 17.003906 C 28.441406 17.078125 28.597656 17.195312 28.71875 17.347656 C 30.410156 19.496094 32.199219 21.601562 34.085938 23.601562 C 35.609375 25.300781 37.316406 26.820312 39.175781 28.128906 C 40.417969 28.980469 41.617188 29.898438 42.765625 30.878906 C 43.613281 31.613281 44.464844 32.449219 45.308594 33.253906 C 45.464844 33.449219 45.609375 33.652344 45.726562 33.875 C 44.640625 34.636719 43.65625 35.40625 42.609375 36.066406 C 41.046875 37.058594 39.445312 37.988281 37.847656 38.925781 C 37.578125 39.027344 37.292969 39.097656 37.007812 39.136719 C 36.859375 39.292969 36.6875 39.421875 36.503906 39.523438 C 35.75 39.804688 34.984375 40.046875 34.234375 40.308594 C 34.085938 40.378906 33.9375 40.460938 33.800781 40.546875 C 34.066406 40.695312 34.386719 40.695312 34.648438 40.546875 C 34.796875 40.488281 34.953125 40.457031 35.117188 40.457031 C 35.605469 40.21875 36.109375 40.019531 36.625 39.859375 L 36.832031 39.78125 C 36.878906 39.683594 36.957031 39.617188 37.054688 39.585938 C 37.371094 39.484375 37.675781 39.324219 37.996094 39.238281 C 40.765625 37.746094 43.414062 36.027344 45.917969 34.101562 Z M 46.046875 33.996094 "/>
<path style=" stroke:none;fill-rule:nonzero;fill:rgb(1.568627%,0%,0%);fill-opacity:1;" d="M 51.074219 37.039062 C 49.820312 35.714844 48.53125 34.429688 47.265625 33.121094 C 47.179688 33.054688 47.078125 33.015625 46.96875 33 L 46.878906 33.121094 C 47.007812 33.273438 47.125 33.441406 47.261719 33.589844 L 50.652344 37.0625 C 50.84375 37.269531 51.003906 37.492188 51.214844 37.753906 C 50.972656 38.0625 50.707031 38.355469 50.417969 38.621094 C 49.730469 39.175781 49.019531 39.695312 48.328125 40.238281 C 48.214844 40.335938 48.097656 40.425781 47.972656 40.507812 C 47.640625 40.726562 47.304688 40.925781 46.960938 41.117188 C 46.859375 41.214844 46.734375 41.285156 46.597656 41.324219 L 45.980469 41.660156 L 45.378906 42.054688 L 45.316406 42.132812 C 44.816406 42.570312 44.242188 42.914062 43.625 43.140625 L 43.445312 43.222656 C 43.160156 43.402344 42.851562 43.550781 42.53125 43.65625 L 41.210938 44.332031 C 40.949219 44.488281 40.664062 44.585938 40.359375 44.613281 C 40.105469 44.722656 39.847656 44.828125 39.566406 44.925781 C 39.082031 45.238281 38.507812 45.378906 37.9375 45.328125 C 37.875 45.378906 37.789062 45.40625 37.707031 45.394531 L 37.300781 45.542969 L 37.402344 45.542969 C 36.71875 45.847656 36.554688 45.898438 36.171875 45.488281 C 36.089844 45.488281 36 45.445312 35.945312 45.375 C 35.753906 45.1875 35.570312 44.988281 35.40625 44.777344 C 35.371094 44.746094 35.347656 44.699219 35.335938 44.652344 C 35.285156 44.625 35.242188 44.585938 35.207031 44.535156 C 34.921875 44.132812 34.65625 43.667969 34.363281 43.289062 C 34.273438 43.140625 34.199219 43.003906 34.132812 42.851562 C 34.101562 42.800781 34.082031 42.742188 34.082031 42.671875 L 33.96875 42.402344 C 33.960938 42.363281 33.960938 42.320312 33.96875 42.28125 C 33.964844 42.242188 33.964844 42.207031 33.96875 42.167969 C 33.886719 41.800781 33.777344 41.441406 33.640625 41.089844 C 33.574219 40.945312 33.488281 40.8125 33.386719 40.6875 L 33.234375 40.765625 C 33.355469 41.421875 33.554688 42.0625 33.816406 42.671875 C 34.058594 43.285156 34.355469 43.867188 34.71875 44.410156 C 35.101562 44.917969 35.511719 45.398438 35.960938 45.847656 L 36.015625 45.847656 L 36.171875 46 L 36.5 46.097656 C 36.832031 45.992188 37.179688 45.917969 37.53125 45.878906 C 37.789062 45.792969 38.058594 45.738281 38.328125 45.722656 C 38.496094 45.652344 38.675781 45.597656 38.855469 45.550781 L 39.191406 45.410156 L 39.480469 45.289062 C 40.152344 44.992188 40.851562 44.769531 41.523438 44.417969 C 44.066406 43.132812 46.523438 41.683594 48.890625 40.074219 C 49.652344 39.527344 50.371094 38.921875 51.042969 38.257812 C 51.621094 37.8125 51.613281 37.617188 51.074219 37.039062 Z M 51.074219 37.039062 "/>
<path style=" stroke:none;fill-rule:nonzero;fill:rgb(1.568627%,0%,0%);fill-opacity:1;" d="M 19.496094 24.800781 L 18.878906 25.335938 C 19.25 25.464844 19.648438 25.4375 20.003906 25.273438 C 20.730469 24.996094 21.441406 24.667969 22.132812 24.304688 C 23.015625 23.800781 24.074219 23.722656 25.023438 24.085938 C 24.796875 24.316406 24.460938 24.375 24.171875 24.246094 C 23.488281 24.089844 22.773438 24.234375 22.199219 24.644531 C 21.238281 25.269531 20.148438 25.660156 19.019531 25.800781 C 19.019531 26.128906 19.277344 26.253906 19.496094 26.375 C 20.78125 27.152344 22.203125 27.695312 23.671875 27.972656 C 24.707031 28.128906 25.683594 27.835938 25.957031 26.632812 C 26 26.402344 26 26.160156 25.957031 25.929688 C 25.878906 25.507812 25.75 25.058594 25.648438 24.664062 L 25.785156 24.609375 C 25.886719 24.851562 26.003906 25.09375 26.089844 25.355469 C 26.332031 26.089844 26.488281 26.859375 26.800781 27.5625 C 27.789062 29.996094 29.699219 31.90625 32.089844 32.867188 C 32.207031 32.910156 32.308594 33.003906 32.371094 33.121094 C 32.242188 33.152344 32.117188 33.175781 31.988281 33.179688 C 30.953125 33.023438 29.984375 32.546875 29.214844 31.8125 C 28.789062 31.433594 28.371094 31.015625 27.96875 30.582031 C 27.09375 31.78125 25.984375 32.78125 24.707031 33.519531 C 27.359375 36.515625 30.46875 38.003906 34.464844 36.917969 C 33.984375 37.535156 33.214844 37.296875 32.582031 37.699219 L 33.757812 38.570312 C 33.277344 38.574219 32.820312 38.371094 32.496094 38.003906 C 32.242188 37.730469 31.894531 37.578125 31.527344 37.578125 C 29.488281 37.421875 27.550781 36.578125 26.019531 35.179688 C 25.574219 34.796875 25.175781 34.390625 24.683594 34.023438 C 24.511719 33.867188 24.292969 33.773438 24.0625 33.753906 C 22.828125 33.707031 21.605469 33.488281 20.425781 33.101562 C 19.589844 32.757812 19.160156 31.800781 19.453125 30.929688 C 19.527344 30.78125 19.597656 30.625 19.660156 30.464844 C 19.050781 30.035156 18.628906 29.371094 18.496094 28.625 C 18.398438 27.867188 18.585938 27.097656 19.019531 26.476562 C 18.808594 26.015625 18.425781 25.648438 17.960938 25.46875 C 17.53125 25.296875 17.496094 25.148438 17.570312 24.597656 C 18.144531 25.328125 18.808594 25.09375 19.472656 24.816406 Z M 19.292969 26.59375 C 19.132812 27.007812 18.996094 27.332031 18.894531 27.671875 C 18.570312 28.765625 19.171875 29.933594 20.238281 30.277344 C 21.003906 30.433594 21.734375 30.738281 22.492188 30.910156 C 23.191406 31.125 23.933594 31.058594 24.582031 30.710938 C 25.296875 30.214844 25.980469 29.675781 26.628906 29.09375 C 26.769531 28.957031 26.832031 28.761719 26.808594 28.574219 C 26.667969 28.050781 26.453125 27.539062 26.261719 27.027344 C 26.175781 27.027344 26.121094 27.074219 26.105469 27.101562 C 25.574219 28.183594 24.597656 28.300781 23.5625 28.207031 C 22.898438 28.097656 22.253906 27.902344 21.640625 27.632812 C 20.894531 27.292969 20.121094 26.949219 19.285156 26.59375 Z M 27.105469 29.121094 C 26.417969 29.675781 25.808594 30.179688 25.191406 30.648438 C 24.703125 30.988281 24.132812 31.183594 23.546875 31.207031 C 22.851562 31.242188 22.160156 31.140625 21.503906 30.902344 C 21.011719 30.753906 20.511719 30.660156 20.035156 30.546875 C 19.453125 31.660156 19.816406 32.542969 20.882812 32.824219 C 21.539062 33 22.1875 33.148438 22.84375 33.308594 C 23.519531 33.515625 24.25 33.410156 24.84375 33.023438 C 25.582031 32.511719 26.316406 32.007812 27.003906 31.441406 C 27.257812 31.167969 27.46875 30.859375 27.632812 30.519531 C 27.769531 30.339844 27.769531 30.085938 27.632812 29.902344 C 27.429688 29.648438 27.265625 29.386719 27.121094 29.121094 Z M 27.105469 29.121094 "/>
<path style=" stroke:none;fill-rule:nonzero;fill:rgb(1.568627%,0%,0%);fill-opacity:1;" d="M 21.0625 21.046875 C 21.234375 21.523438 21.3125 22.023438 21.289062 22.527344 L 21.148438 22.527344 L 20.925781 21.039062 Z M 21.0625 21.046875 "/>
<path style=" stroke:none;fill-rule:nonzero;fill:rgb(1.568627%,0%,0%);fill-opacity:1;" d="M 21.1875 19.472656 C 20.886719 19.378906 20.5625 19.460938 20.339844 19.6875 C 20.300781 19.726562 20.300781 19.800781 20.339844 19.84375 C 20.390625 19.882812 20.457031 19.882812 20.503906 19.84375 L 21.027344 19.84375 C 21.058594 19.859375 21.085938 19.855469 21.117188 19.835938 C 21.140625 19.824219 21.160156 19.796875 21.164062 19.765625 C 21.183594 19.703125 21.144531 19.644531 21.085938 19.625 Z M 21.1875 19.472656 "/>
<path style=" stroke:none;fill-rule:nonzero;fill:rgb(1.568627%,0%,0%);fill-opacity:1;" d="M 21.1875 19.417969 C 20.914062 19.5 20.652344 19.605469 20.394531 19.742188 C 20.351562 19.78125 20.351562 19.855469 20.394531 19.898438 C 20.433594 19.9375 20.496094 19.9375 20.535156 19.898438 C 20.78125 19.777344 21.027344 19.679688 21.285156 19.601562 C 21.324219 19.59375 21.355469 19.5625 21.367188 19.519531 C 21.375 19.480469 21.367188 19.4375 21.335938 19.410156 C 21.304688 19.382812 21.265625 19.367188 21.222656 19.382812 Z M 21.1875 19.417969 "/>
<path style=" stroke:none;fill-rule:nonzero;fill:rgb(1.568627%,0%,0%);fill-opacity:1;" d="M 21.285156 19.472656 C 20.875 19.554688 20.488281 19.71875 20.136719 19.960938 C 20.027344 20.039062 20.136719 20.234375 20.257812 20.148438 C 20.582031 19.921875 20.957031 19.761719 21.34375 19.6875 C 21.394531 19.667969 21.429688 19.605469 21.417969 19.546875 C 21.402344 19.492188 21.339844 19.460938 21.285156 19.472656 Z M 21.285156 19.472656 "/>
<path style=" stroke:none;fill-rule:nonzero;fill:rgb(1.568627%,0%,0%);fill-opacity:1;" d="M 21.285156 19.472656 C 20.960938 19.535156 20.652344 19.652344 20.371094 19.828125 C 20.230469 19.914062 20.097656 20.015625 19.980469 20.121094 C 19.863281 20.226562 19.746094 20.375 19.832031 20.546875 C 19.917969 20.722656 20.089844 20.546875 20.019531 20.425781 C 19.953125 20.304688 20.199219 20.226562 20.238281 20.195312 C 20.347656 20.105469 20.457031 20.027344 20.578125 19.964844 C 20.816406 19.828125 21.078125 19.738281 21.34375 19.6875 C 21.476562 19.6875 21.417969 19.441406 21.285156 19.472656 Z M 21.285156 19.472656 "/>
<path style=" stroke:none;fill-rule:nonzero;fill:rgb(1.568627%,0%,0%);fill-opacity:1;" d="M 27.121094 17.488281 C 27.132812 17.980469 26.996094 18.472656 26.730469 18.890625 C 26.65625 19.007812 26.851562 19.121094 26.925781 19 C 27.214844 18.554688 27.359375 18.023438 27.34375 17.488281 C 27.34375 17.425781 27.296875 17.375 27.234375 17.375 C 27.175781 17.375 27.121094 17.425781 27.121094 17.488281 Z M 27.121094 17.488281 "/>
<path style=" stroke:none;fill-rule:nonzero;fill:rgb(1.568627%,0%,0%);fill-opacity:1;" d="M 27.828125 19.105469 C 28.210938 18.984375 28.523438 18.699219 28.675781 18.324219 C 28.683594 18.261719 28.652344 18.203125 28.597656 18.183594 C 28.539062 18.167969 28.476562 18.199219 28.460938 18.261719 L 28.460938 18.316406 L 28.394531 18.417969 C 28.375 18.453125 28.351562 18.480469 28.328125 18.503906 L 28.242188 18.601562 L 28.191406 18.601562 L 28.089844 18.664062 L 27.976562 18.722656 L 27.921875 18.722656 C 27.867188 18.742188 27.828125 18.800781 27.835938 18.859375 C 27.851562 18.921875 27.910156 18.960938 27.96875 18.953125 Z M 27.828125 19.105469 "/>
<path style=" stroke:none;fill-rule:nonzero;fill:rgb(1.568627%,0%,0%);fill-opacity:1;" d="M 17.875 22.84375 C 17.507812 23.226562 17.273438 23.730469 17.21875 24.269531 C 17.226562 24.753906 17.507812 25.191406 17.9375 25.390625 C 18.070312 25.453125 18.183594 25.25 18.054688 25.195312 C 17.679688 25.035156 17.433594 24.652344 17.433594 24.234375 C 17.503906 23.769531 17.710938 23.34375 18.039062 23.007812 C 18.121094 22.894531 17.96875 22.730469 17.875 22.84375 Z M 17.875 22.84375 "/>
<path style=" stroke:none;fill-rule:nonzero;fill:rgb(1.568627%,0%,0%);fill-opacity:1;" d="M 17.859375 24.917969 C 17.679688 24.730469 17.589844 24.464844 17.613281 24.195312 C 17.578125 23.925781 17.644531 23.640625 17.800781 23.40625 C 17.894531 23.292969 17.738281 23.140625 17.648438 23.242188 C 17.445312 23.515625 17.355469 23.855469 17.394531 24.195312 C 17.378906 24.523438 17.492188 24.832031 17.710938 25.070312 C 17.8125 25.167969 17.96875 25.003906 17.859375 24.90625 Z M 17.859375 24.917969 "/>
<path style=" stroke:none;fill-rule:nonzero;fill:rgb(1.568627%,0%,0%);fill-opacity:1;" d="M 20.925781 20.800781 C 20.886719 20.800781 20.855469 20.820312 20.832031 20.855469 C 20.808594 20.886719 20.808594 20.929688 20.824219 20.96875 C 21.0625 21.4375 21.183594 21.949219 21.183594 22.480469 C 21.183594 22.628906 21.402344 22.628906 21.402344 22.480469 C 21.40625 21.914062 21.269531 21.359375 21.019531 20.855469 L 20.925781 21.023438 C 21.0625 21.023438 21.0625 20.820312 20.925781 20.800781 Z M 20.925781 20.800781 "/>
<path style=" stroke:none;fill-rule:nonzero;fill:rgb(1.568627%,0%,0%);fill-opacity:1;" d="M 25.589844 24.523438 C 25.8125 25.054688 25.980469 25.613281 26.089844 26.179688 C 26.089844 26.320312 26.324219 26.257812 26.300781 26.121094 C 26.191406 25.519531 26.011719 24.9375 25.777344 24.382812 C 25.722656 24.25 25.53125 24.382812 25.589844 24.507812 Z M 25.589844 24.523438 "/>
</g>
</svg>
