<svg xmlns="http://www.w3.org/2000/svg" viewBox="0 0 204.7 204.7"><defs><style>.cls-1{fill:#040000;}</style></defs><g id="圖層_2" data-name="圖層 2"><g id="圖層_1-2" data-name="圖層 1"><g id="quickmark"><rect class="cls-1" width="7.06" height="7.06"/><rect class="cls-1" x="7.06" width="7.06" height="7.06"/><rect class="cls-1" x="14.12" width="7.06" height="7.06"/><rect class="cls-1" x="21.18" width="7.06" height="7.06"/><rect class="cls-1" x="28.23" width="7.06" height="7.06"/><rect class="cls-1" x="35.29" width="7.06" height="7.06"/><rect class="cls-1" x="42.35" width="7.06" height="7.06"/><rect class="cls-1" x="56.47" width="7.06" height="7.06"/><rect class="cls-1" x="77.64" width="7.06" height="7.06"/><rect class="cls-1" x="105.88" width="7.06" height="7.06"/><rect class="cls-1" x="112.94" width="7.06" height="7.06"/><rect class="cls-1" x="120" width="7.06" height="7.06"/><rect class="cls-1" x="127.05" width="7.06" height="7.06"/><rect class="cls-1" x="141.17" width="7.06" height="7.06"/><rect class="cls-1" x="155.29" width="7.06" height="7.06"/><rect class="cls-1" x="162.35" width="7.06" height="7.06"/><rect class="cls-1" x="169.41" width="7.06" height="7.06"/><rect class="cls-1" x="176.46" width="7.06" height="7.06"/><rect class="cls-1" x="183.52" width="7.06" height="7.06"/><rect class="cls-1" x="190.58" width="7.06" height="7.06"/><rect class="cls-1" x="197.64" width="7.06" height="7.06"/><rect class="cls-1" y="7.06" width="7.06" height="7.06"/><rect class="cls-1" x="42.35" y="7.06" width="7.06" height="7.06"/><rect class="cls-1" x="56.47" y="7.06" width="7.06" height="7.06"/><rect class="cls-1" x="70.59" y="7.06" width="7.06" height="7.06"/><rect class="cls-1" x="84.7" y="7.06" width="7.06" height="7.06"/><rect class="cls-1" x="98.82" y="7.06" width="7.06" height="7.06"/><rect class="cls-1" x="105.88" y="7.06" width="7.06" height="7.06"/><rect class="cls-1" x="120" y="7.06" width="7.06" height="7.06"/><rect class="cls-1" x="141.17" y="7.06" width="7.06" height="7.06"/><rect class="cls-1" x="155.29" y="7.06" width="7.06" height="7.06"/><rect class="cls-1" x="197.64" y="7.06" width="7.06" height="7.06"/><rect class="cls-1" y="14.12" width="7.06" height="7.06"/><rect class="cls-1" x="14.12" y="14.12" width="7.06" height="7.06"/><rect class="cls-1" x="21.18" y="14.12" width="7.06" height="7.06"/><rect class="cls-1" x="28.23" y="14.12" width="7.06" height="7.06"/><rect class="cls-1" x="42.35" y="14.12" width="7.06" height="7.06"/><rect class="cls-1" x="77.64" y="14.12" width="7.06" height="7.06"/><rect class="cls-1" x="91.76" y="14.12" width="7.06" height="7.06"/><rect class="cls-1" x="98.82" y="14.12" width="7.06" height="7.06"/><rect class="cls-1" x="105.88" y="14.12" width="7.06" height="7.06"/><rect class="cls-1" x="155.29" y="14.12" width="7.06" height="7.06"/><rect class="cls-1" x="169.41" y="14.12" width="7.06" height="7.06"/><rect class="cls-1" x="176.46" y="14.12" width="7.06" height="7.06"/><rect class="cls-1" x="183.52" y="14.12" width="7.06" height="7.06"/><rect class="cls-1" x="197.64" y="14.12" width="7.06" height="7.06"/><rect class="cls-1" y="21.18" width="7.06" height="7.06"/><rect class="cls-1" x="14.12" y="21.18" width="7.06" height="7.06"/><rect class="cls-1" x="21.18" y="21.18" width="7.06" height="7.06"/><rect class="cls-1" x="28.23" y="21.18" width="7.06" height="7.06"/><rect class="cls-1" x="42.35" y="21.18" width="7.06" height="7.06"/><rect class="cls-1" x="56.47" y="21.18" width="7.06" height="7.06"/><rect class="cls-1" x="63.53" y="21.18" width="7.06" height="7.06"/><rect class="cls-1" x="70.59" y="21.18" width="7.06" height="7.06"/><rect class="cls-1" x="141.17" y="21.18" width="7.06" height="7.06"/><rect class="cls-1" x="155.29" y="21.18" width="7.06" height="7.06"/><rect class="cls-1" x="169.41" y="21.18" width="7.06" height="7.06"/><rect class="cls-1" x="176.46" y="21.18" width="7.06" height="7.06"/><rect class="cls-1" x="183.52" y="21.18" width="7.06" height="7.06"/><rect class="cls-1" x="197.64" y="21.18" width="7.06" height="7.06"/><rect class="cls-1" y="28.23" width="7.06" height="7.06"/><rect class="cls-1" x="14.12" y="28.23" width="7.06" height="7.06"/><rect class="cls-1" x="21.18" y="28.23" width="7.06" height="7.06"/><rect class="cls-1" x="28.23" y="28.23" width="7.06" height="7.06"/><rect class="cls-1" x="42.35" y="28.23" width="7.06" height="7.06"/><rect class="cls-1" x="84.7" y="28.23" width="7.06" height="7.06"/><rect class="cls-1" x="91.76" y="28.23" width="7.06" height="7.06"/><rect class="cls-1" x="120" y="28.23" width="7.06" height="7.06"/><rect class="cls-1" x="127.05" y="28.23" width="7.06" height="7.06"/><rect class="cls-1" x="134.11" y="28.23" width="7.06" height="7.06"/><rect class="cls-1" x="141.17" y="28.23" width="7.06" height="7.06"/><rect class="cls-1" x="155.29" y="28.23" width="7.06" height="7.06"/><rect class="cls-1" x="169.41" y="28.23" width="7.06" height="7.06"/><rect class="cls-1" x="176.46" y="28.23" width="7.06" height="7.06"/><rect class="cls-1" x="183.52" y="28.23" width="7.06" height="7.06"/><rect class="cls-1" x="197.64" y="28.23" width="7.06" height="7.06"/><rect class="cls-1" y="35.29" width="7.06" height="7.06"/><rect class="cls-1" x="42.35" y="35.29" width="7.06" height="7.06"/><rect class="cls-1" x="84.7" y="35.29" width="7.06" height="7.06"/><rect class="cls-1" x="98.82" y="35.29" width="7.06" height="7.06"/><rect class="cls-1" x="127.05" y="35.29" width="7.06" height="7.06"/><rect class="cls-1" x="134.11" y="35.29" width="7.06" height="7.06"/><rect class="cls-1" x="155.29" y="35.29" width="7.06" height="7.06"/><rect class="cls-1" x="197.64" y="35.29" width="7.06" height="7.06"/><rect class="cls-1" y="42.35" width="7.06" height="7.06"/><rect class="cls-1" x="7.06" y="42.35" width="7.06" height="7.06"/><rect class="cls-1" x="14.12" y="42.35" width="7.06" height="7.06"/><rect class="cls-1" x="21.18" y="42.35" width="7.06" height="7.06"/><rect class="cls-1" x="28.23" y="42.35" width="7.06" height="7.06"/><rect class="cls-1" x="35.29" y="42.35" width="7.06" height="7.06"/><rect class="cls-1" x="42.35" y="42.35" width="7.06" height="7.06"/><rect class="cls-1" x="56.47" y="42.35" width="7.06" height="7.06"/><rect class="cls-1" x="70.59" y="42.35" width="7.06" height="7.06"/><rect class="cls-1" x="84.7" y="42.35" width="7.06" height="7.06"/><rect class="cls-1" x="98.82" y="42.35" width="7.06" height="7.06"/><rect class="cls-1" x="112.94" y="42.35" width="7.06" height="7.06"/><rect class="cls-1" x="127.05" y="42.35" width="7.06" height="7.06"/><rect class="cls-1" x="141.17" y="42.35" width="7.06" height="7.06"/><rect class="cls-1" x="155.29" y="42.35" width="7.06" height="7.06"/><rect class="cls-1" x="162.35" y="42.35" width="7.06" height="7.06"/><rect class="cls-1" x="169.41" y="42.35" width="7.06" height="7.06"/><rect class="cls-1" x="176.46" y="42.35" width="7.06" height="7.06"/><rect class="cls-1" x="183.52" y="42.35" width="7.06" height="7.06"/><rect class="cls-1" x="190.58" y="42.35" width="7.06" height="7.06"/><rect class="cls-1" x="197.64" y="42.35" width="7.06" height="7.06"/><rect class="cls-1" x="56.47" y="49.41" width="7.06" height="7.06"/><rect class="cls-1" x="70.59" y="49.41" width="7.06" height="7.06"/><rect class="cls-1" x="77.64" y="49.41" width="7.06" height="7.06"/><rect class="cls-1" x="91.76" y="49.41" width="7.06" height="7.06"/><rect class="cls-1" x="98.82" y="49.41" width="7.06" height="7.06"/><rect class="cls-1" x="120" y="49.41" width="7.06" height="7.06"/><rect class="cls-1" x="134.11" y="49.41" width="7.06" height="7.06"/><rect class="cls-1" x="141.17" y="49.41" width="7.06" height="7.06"/><rect class="cls-1" y="56.47" width="7.06" height="7.06"/><rect class="cls-1" x="14.12" y="56.47" width="7.06" height="7.06"/><rect class="cls-1" x="21.18" y="56.47" width="7.06" height="7.06"/><rect class="cls-1" x="35.29" y="56.47" width="7.06" height="7.06"/><rect class="cls-1" x="42.35" y="56.47" width="7.06" height="7.06"/><rect class="cls-1" x="49.41" y="56.47" width="7.06" height="7.06"/><rect class="cls-1" x="63.53" y="56.47" width="7.06" height="7.06"/><rect class="cls-1" x="70.59" y="56.47" width="7.06" height="7.06"/><rect class="cls-1" x="84.7" y="56.47" width="7.06" height="7.06"/><rect class="cls-1" x="91.76" y="56.47" width="7.06" height="7.06"/><rect class="cls-1" x="98.82" y="56.47" width="7.06" height="7.06"/><rect class="cls-1" x="112.94" y="56.47" width="7.06" height="7.06"/><rect class="cls-1" x="120" y="56.47" width="7.06" height="7.06"/><rect class="cls-1" x="127.05" y="56.47" width="7.06" height="7.06"/><rect class="cls-1" x="134.11" y="56.47" width="7.06" height="7.06"/><rect class="cls-1" x="141.17" y="56.47" width="7.06" height="7.06"/><rect class="cls-1" x="155.29" y="56.47" width="7.06" height="7.06"/><rect class="cls-1" x="176.46" y="56.47" width="7.06" height="7.06"/><rect class="cls-1" x="190.58" y="56.47" width="7.06" height="7.06"/><rect class="cls-1" x="197.64" y="56.47" width="7.06" height="7.06"/><rect class="cls-1" x="28.23" y="63.53" width="7.06" height="7.06"/><rect class="cls-1" x="49.41" y="63.53" width="7.06" height="7.06"/><rect class="cls-1" x="70.59" y="63.53" width="7.06" height="7.06"/><rect class="cls-1" x="84.7" y="63.53" width="7.06" height="7.06"/><rect class="cls-1" x="105.88" y="63.53" width="7.06" height="7.06"/><rect class="cls-1" x="112.94" y="63.53" width="7.06" height="7.06"/><rect class="cls-1" x="127.05" y="63.53" width="7.06" height="7.06"/><rect class="cls-1" x="134.11" y="63.53" width="7.06" height="7.06"/><rect class="cls-1" x="155.29" y="63.53" width="7.06" height="7.06"/><rect class="cls-1" x="162.35" y="63.53" width="7.06" height="7.06"/><rect class="cls-1" x="169.41" y="63.53" width="7.06" height="7.06"/><rect class="cls-1" x="197.64" y="63.53" width="7.06" height="7.06"/><rect class="cls-1" y="70.59" width="7.06" height="7.06"/><rect class="cls-1" x="14.12" y="70.59" width="7.06" height="7.06"/><rect class="cls-1" x="21.18" y="70.59" width="7.06" height="7.06"/><rect class="cls-1" x="42.35" y="70.59" width="7.06" height="7.06"/><rect class="cls-1" x="56.47" y="70.59" width="7.06" height="7.06"/><rect class="cls-1" x="70.59" y="70.59" width="7.06" height="7.06"/><rect class="cls-1" x="98.82" y="70.59" width="7.06" height="7.06"/><rect class="cls-1" x="112.94" y="70.59" width="7.06" height="7.06"/><rect class="cls-1" x="127.05" y="70.59" width="7.06" height="7.06"/><rect class="cls-1" x="183.52" y="70.59" width="7.06" height="7.06"/><rect class="cls-1" x="190.58" y="70.59" width="7.06" height="7.06"/><rect class="cls-1" x="7.06" y="77.64" width="7.06" height="7.06"/><rect class="cls-1" x="14.12" y="77.64" width="7.06" height="7.06"/><rect class="cls-1" x="35.29" y="77.64" width="7.06" height="7.06"/><rect class="cls-1" x="49.41" y="77.64" width="7.06" height="7.06"/><rect class="cls-1" x="70.59" y="77.64" width="7.06" height="7.06"/><rect class="cls-1" x="84.7" y="77.64" width="7.06" height="7.06"/><rect class="cls-1" x="91.76" y="77.64" width="7.06" height="7.06"/><rect class="cls-1" x="98.82" y="77.64" width="7.06" height="7.06"/><rect class="cls-1" x="127.05" y="77.64" width="7.06" height="7.06"/><rect class="cls-1" x="134.11" y="77.64" width="7.06" height="7.06"/><rect class="cls-1" x="148.23" y="77.64" width="7.06" height="7.06"/><rect class="cls-1" x="162.35" y="77.64" width="7.06" height="7.06"/><rect class="cls-1" x="169.41" y="77.64" width="7.06" height="7.06"/><rect class="cls-1" x="197.64" y="77.64" width="7.06" height="7.06"/><rect class="cls-1" y="84.7" width="7.06" height="7.06"/><rect class="cls-1" x="7.06" y="84.7" width="7.06" height="7.06"/><rect class="cls-1" x="21.18" y="84.7" width="7.06" height="7.06"/><rect class="cls-1" x="35.29" y="84.7" width="7.06" height="7.06"/><rect class="cls-1" x="42.35" y="84.7" width="7.06" height="7.06"/><rect class="cls-1" x="56.47" y="84.7" width="7.06" height="7.06"/><rect class="cls-1" x="70.59" y="84.7" width="7.06" height="7.06"/><rect class="cls-1" x="84.7" y="84.7" width="7.06" height="7.06"/><rect class="cls-1" x="105.88" y="84.7" width="7.06" height="7.06"/><rect class="cls-1" x="141.17" y="84.7" width="7.06" height="7.06"/><rect class="cls-1" x="148.23" y="84.7" width="7.06" height="7.06"/><rect class="cls-1" x="176.46" y="84.7" width="7.06" height="7.06"/><rect class="cls-1" x="183.52" y="84.7" width="7.06" height="7.06"/><rect class="cls-1" x="14.12" y="91.76" width="7.06" height="7.06"/><rect class="cls-1" x="49.41" y="91.76" width="7.06" height="7.06"/><rect class="cls-1" x="56.47" y="91.76" width="7.06" height="7.06"/><rect class="cls-1" x="77.64" y="91.76" width="7.06" height="7.06"/><rect class="cls-1" x="84.7" y="91.76" width="7.06" height="7.06"/><rect class="cls-1" x="91.76" y="91.76" width="7.06" height="7.06"/><rect class="cls-1" x="105.88" y="91.76" width="7.06" height="7.06"/><rect class="cls-1" x="112.94" y="91.76" width="7.06" height="7.06"/><rect class="cls-1" x="120" y="91.76" width="7.06" height="7.06"/><rect class="cls-1" x="127.05" y="91.76" width="7.06" height="7.06"/><rect class="cls-1" x="134.11" y="91.76" width="7.06" height="7.06"/><rect class="cls-1" x="141.17" y="91.76" width="7.06" height="7.06"/><rect class="cls-1" x="155.29" y="91.76" width="7.06" height="7.06"/><rect class="cls-1" x="183.52" y="91.76" width="7.06" height="7.06"/><rect class="cls-1" x="190.58" y="91.76" width="7.06" height="7.06"/><rect class="cls-1" x="197.64" y="91.76" width="7.06" height="7.06"/><rect class="cls-1" x="7.06" y="98.82" width="7.06" height="7.06"/><rect class="cls-1" x="21.18" y="98.82" width="7.06" height="7.06"/><rect class="cls-1" x="35.29" y="98.82" width="7.06" height="7.06"/><rect class="cls-1" x="42.35" y="98.82" width="7.06" height="7.06"/><rect class="cls-1" x="56.47" y="98.82" width="7.06" height="7.06"/><rect class="cls-1" x="63.53" y="98.82" width="7.06" height="7.06"/><rect class="cls-1" x="84.7" y="98.82" width="7.06" height="7.06"/><rect class="cls-1" x="98.82" y="98.82" width="7.06" height="7.06"/><rect class="cls-1" x="112.94" y="98.82" width="7.06" height="7.06"/><rect class="cls-1" x="127.05" y="98.82" width="7.06" height="7.06"/><rect class="cls-1" x="134.11" y="98.82" width="7.06" height="7.06"/><rect class="cls-1" x="148.23" y="98.82" width="7.06" height="7.06"/><rect class="cls-1" x="169.41" y="98.82" width="7.06" height="7.06"/><rect class="cls-1" x="183.52" y="98.82" width="7.06" height="7.06"/><rect class="cls-1" x="190.58" y="98.82" width="7.06" height="7.06"/><rect class="cls-1" x="197.64" y="98.82" width="7.06" height="7.06"/><rect class="cls-1" y="105.88" width="7.06" height="7.06"/><rect class="cls-1" x="7.06" y="105.88" width="7.06" height="7.06"/><rect class="cls-1" x="21.18" y="105.88" width="7.06" height="7.06"/><rect class="cls-1" x="28.23" y="105.88" width="7.06" height="7.06"/><rect class="cls-1" x="49.41" y="105.88" width="7.06" height="7.06"/><rect class="cls-1" x="70.59" y="105.88" width="7.06" height="7.06"/><rect class="cls-1" x="77.64" y="105.88" width="7.06" height="7.06"/><rect class="cls-1" x="84.7" y="105.88" width="7.06" height="7.06"/><rect class="cls-1" x="91.76" y="105.88" width="7.06" height="7.06"/><rect class="cls-1" x="112.94" y="105.88" width="7.06" height="7.06"/><rect class="cls-1" x="127.05" y="105.88" width="7.06" height="7.06"/><rect class="cls-1" x="134.11" y="105.88" width="7.06" height="7.06"/><rect class="cls-1" x="141.17" y="105.88" width="7.06" height="7.06"/><rect class="cls-1" x="148.23" y="105.88" width="7.06" height="7.06"/><rect class="cls-1" x="155.29" y="105.88" width="7.06" height="7.06"/><rect class="cls-1" x="169.41" y="105.88" width="7.06" height="7.06"/><rect class="cls-1" x="190.58" y="105.88" width="7.06" height="7.06"/><rect class="cls-1" x="7.06" y="112.94" width="7.06" height="7.06"/><rect class="cls-1" x="14.12" y="112.94" width="7.06" height="7.06"/><rect class="cls-1" x="21.18" y="112.94" width="7.06" height="7.06"/><rect class="cls-1" x="28.23" y="112.94" width="7.06" height="7.06"/><rect class="cls-1" x="35.29" y="112.94" width="7.06" height="7.06"/><rect class="cls-1" x="42.35" y="112.94" width="7.06" height="7.06"/><rect class="cls-1" x="49.41" y="112.94" width="7.06" height="7.06"/><rect class="cls-1" x="63.53" y="112.94" width="7.06" height="7.06"/><rect class="cls-1" x="77.64" y="112.94" width="7.06" height="7.06"/><rect class="cls-1" x="112.94" y="112.94" width="7.06" height="7.06"/><rect class="cls-1" x="127.05" y="112.94" width="7.06" height="7.06"/><rect class="cls-1" x="134.11" y="112.94" width="7.06" height="7.06"/><rect class="cls-1" x="141.17" y="112.94" width="7.06" height="7.06"/><rect class="cls-1" x="148.23" y="112.94" width="7.06" height="7.06"/><rect class="cls-1" x="169.41" y="112.94" width="7.06" height="7.06"/><rect class="cls-1" x="176.46" y="112.94" width="7.06" height="7.06"/><rect class="cls-1" x="190.58" y="112.94" width="7.06" height="7.06"/><rect class="cls-1" x="7.06" y="120" width="7.06" height="7.06"/><rect class="cls-1" x="14.12" y="120" width="7.06" height="7.06"/><rect class="cls-1" x="21.18" y="120" width="7.06" height="7.06"/><rect class="cls-1" x="35.29" y="120" width="7.06" height="7.06"/><rect class="cls-1" x="49.41" y="120" width="7.06" height="7.06"/><rect class="cls-1" x="56.47" y="120" width="7.06" height="7.06"/><rect class="cls-1" x="63.53" y="120" width="7.06" height="7.06"/><rect class="cls-1" x="70.59" y="120" width="7.06" height="7.06"/><rect class="cls-1" x="84.7" y="120" width="7.06" height="7.06"/><rect class="cls-1" x="91.76" y="120" width="7.06" height="7.06"/><rect class="cls-1" x="105.88" y="120" width="7.06" height="7.06"/><rect class="cls-1" x="112.94" y="120" width="7.06" height="7.06"/><rect class="cls-1" x="141.17" y="120" width="7.06" height="7.06"/><rect class="cls-1" x="162.35" y="120" width="7.06" height="7.06"/><rect class="cls-1" x="176.46" y="120" width="7.06" height="7.06"/><rect class="cls-1" x="183.52" y="120" width="7.06" height="7.06"/><rect class="cls-1" x="190.58" y="120" width="7.06" height="7.06"/><rect class="cls-1" x="7.06" y="127.05" width="7.06" height="7.06"/><rect class="cls-1" x="21.18" y="127.05" width="7.06" height="7.06"/><rect class="cls-1" x="28.23" y="127.05" width="7.06" height="7.06"/><rect class="cls-1" x="42.35" y="127.05" width="7.06" height="7.06"/><rect class="cls-1" x="70.59" y="127.05" width="7.06" height="7.06"/><rect class="cls-1" x="77.64" y="127.05" width="7.06" height="7.06"/><rect class="cls-1" x="84.7" y="127.05" width="7.06" height="7.06"/><rect class="cls-1" x="105.88" y="127.05" width="7.06" height="7.06"/><rect class="cls-1" x="141.17" y="127.05" width="7.06" height="7.06"/><rect class="cls-1" x="162.35" y="127.05" width="7.06" height="7.06"/><rect class="cls-1" x="183.52" y="127.05" width="7.06" height="7.06"/><rect class="cls-1" y="134.11" width="7.06" height="7.06"/><rect class="cls-1" x="7.06" y="134.11" width="7.06" height="7.06"/><rect class="cls-1" x="14.12" y="134.11" width="7.06" height="7.06"/><rect class="cls-1" x="28.23" y="134.11" width="7.06" height="7.06"/><rect class="cls-1" x="49.41" y="134.11" width="7.06" height="7.06"/><rect class="cls-1" x="56.47" y="134.11" width="7.06" height="7.06"/><rect class="cls-1" x="63.53" y="134.11" width="7.06" height="7.06"/><rect class="cls-1" x="77.64" y="134.11" width="7.06" height="7.06"/><rect class="cls-1" x="105.88" y="134.11" width="7.06" height="7.06"/><rect class="cls-1" x="120" y="134.11" width="7.06" height="7.06"/><rect class="cls-1" x="127.05" y="134.11" width="7.06" height="7.06"/><rect class="cls-1" x="134.11" y="134.11" width="7.06" height="7.06"/><rect class="cls-1" x="148.23" y="134.11" width="7.06" height="7.06"/><rect class="cls-1" x="155.29" y="134.11" width="7.06" height="7.06"/><rect class="cls-1" x="169.41" y="134.11" width="7.06" height="7.06"/><rect class="cls-1" x="183.52" y="134.11" width="7.06" height="7.06"/><rect class="cls-1" y="141.17" width="7.06" height="7.06"/><rect class="cls-1" x="14.12" y="141.17" width="7.06" height="7.06"/><rect class="cls-1" x="28.23" y="141.17" width="7.06" height="7.06"/><rect class="cls-1" x="35.29" y="141.17" width="7.06" height="7.06"/><rect class="cls-1" x="42.35" y="141.17" width="7.06" height="7.06"/><rect class="cls-1" x="63.53" y="141.17" width="7.06" height="7.06"/><rect class="cls-1" x="84.7" y="141.17" width="7.06" height="7.06"/><rect class="cls-1" x="91.76" y="141.17" width="7.06" height="7.06"/><rect class="cls-1" x="120" y="141.17" width="7.06" height="7.06"/><rect class="cls-1" x="141.17" y="141.17" width="7.06" height="7.06"/><rect class="cls-1" x="148.23" y="141.17" width="7.06" height="7.06"/><rect class="cls-1" x="155.29" y="141.17" width="7.06" height="7.06"/><rect class="cls-1" x="162.35" y="141.17" width="7.06" height="7.06"/><rect class="cls-1" x="169.41" y="141.17" width="7.06" height="7.06"/><rect class="cls-1" x="176.46" y="141.17" width="7.06" height="7.06"/><rect class="cls-1" x="183.52" y="141.17" width="7.06" height="7.06"/><rect class="cls-1" x="56.47" y="148.23" width="7.06" height="7.06"/><rect class="cls-1" x="77.64" y="148.23" width="7.06" height="7.06"/><rect class="cls-1" x="91.76" y="148.23" width="7.06" height="7.06"/><rect class="cls-1" x="98.82" y="148.23" width="7.06" height="7.06"/><rect class="cls-1" x="120" y="148.23" width="7.06" height="7.06"/><rect class="cls-1" x="141.17" y="148.23" width="7.06" height="7.06"/><rect class="cls-1" x="169.41" y="148.23" width="7.06" height="7.06"/><rect class="cls-1" x="176.46" y="148.23" width="7.06" height="7.06"/><rect class="cls-1" x="183.52" y="148.23" width="7.06" height="7.06"/><rect class="cls-1" x="190.58" y="148.23" width="7.06" height="7.06"/><rect class="cls-1" x="197.64" y="148.23" width="7.06" height="7.06"/><rect class="cls-1" y="155.29" width="7.06" height="7.06"/><rect class="cls-1" x="7.06" y="155.29" width="7.06" height="7.06"/><rect class="cls-1" x="14.12" y="155.29" width="7.06" height="7.06"/><rect class="cls-1" x="21.18" y="155.29" width="7.06" height="7.06"/><rect class="cls-1" x="28.23" y="155.29" width="7.06" height="7.06"/><rect class="cls-1" x="35.29" y="155.29" width="7.06" height="7.06"/><rect class="cls-1" x="42.35" y="155.29" width="7.06" height="7.06"/><rect class="cls-1" x="56.47" y="155.29" width="7.06" height="7.06"/><rect class="cls-1" x="91.76" y="155.29" width="7.06" height="7.06"/><rect class="cls-1" x="112.94" y="155.29" width="7.06" height="7.06"/><rect class="cls-1" x="120" y="155.29" width="7.06" height="7.06"/><rect class="cls-1" x="134.11" y="155.29" width="7.06" height="7.06"/><rect class="cls-1" x="141.17" y="155.29" width="7.06" height="7.06"/><rect class="cls-1" x="155.29" y="155.29" width="7.06" height="7.06"/><rect class="cls-1" x="169.41" y="155.29" width="7.06" height="7.06"/><rect class="cls-1" x="176.46" y="155.29" width="7.06" height="7.06"/><rect class="cls-1" x="190.58" y="155.29" width="7.06" height="7.06"/><rect class="cls-1" y="162.35" width="7.06" height="7.06"/><rect class="cls-1" x="42.35" y="162.35" width="7.06" height="7.06"/><rect class="cls-1" x="56.47" y="162.35" width="7.06" height="7.06"/><rect class="cls-1" x="63.53" y="162.35" width="7.06" height="7.06"/><rect class="cls-1" x="77.64" y="162.35" width="7.06" height="7.06"/><rect class="cls-1" x="84.7" y="162.35" width="7.06" height="7.06"/><rect class="cls-1" x="105.88" y="162.35" width="7.06" height="7.06"/><rect class="cls-1" x="127.05" y="162.35" width="7.06" height="7.06"/><rect class="cls-1" x="134.11" y="162.35" width="7.06" height="7.06"/><rect class="cls-1" x="141.17" y="162.35" width="7.06" height="7.06"/><rect class="cls-1" x="169.41" y="162.35" width="7.06" height="7.06"/><rect class="cls-1" x="176.46" y="162.35" width="7.06" height="7.06"/><rect class="cls-1" x="190.58" y="162.35" width="7.06" height="7.06"/><rect class="cls-1" y="169.41" width="7.06" height="7.06"/><rect class="cls-1" x="14.12" y="169.41" width="7.06" height="7.06"/><rect class="cls-1" x="21.18" y="169.41" width="7.06" height="7.06"/><rect class="cls-1" x="28.23" y="169.41" width="7.06" height="7.06"/><rect class="cls-1" x="42.35" y="169.41" width="7.06" height="7.06"/><rect class="cls-1" x="98.82" y="169.41" width="7.06" height="7.06"/><rect class="cls-1" x="105.88" y="169.41" width="7.06" height="7.06"/><rect class="cls-1" x="141.17" y="169.41" width="7.06" height="7.06"/><rect class="cls-1" x="148.23" y="169.41" width="7.06" height="7.06"/><rect class="cls-1" x="155.29" y="169.41" width="7.06" height="7.06"/><rect class="cls-1" x="162.35" y="169.41" width="7.06" height="7.06"/><rect class="cls-1" x="169.41" y="169.41" width="7.06" height="7.06"/><rect class="cls-1" x="183.52" y="169.41" width="7.06" height="7.06"/><rect class="cls-1" x="190.58" y="169.41" width="7.06" height="7.06"/><rect class="cls-1" y="176.46" width="7.06" height="7.06"/><rect class="cls-1" x="14.12" y="176.46" width="7.06" height="7.06"/><rect class="cls-1" x="21.18" y="176.46" width="7.06" height="7.06"/><rect class="cls-1" x="28.23" y="176.46" width="7.06" height="7.06"/><rect class="cls-1" x="42.35" y="176.46" width="7.06" height="7.06"/><rect class="cls-1" x="56.47" y="176.46" width="7.06" height="7.06"/><rect class="cls-1" x="77.64" y="176.46" width="7.06" height="7.06"/><rect class="cls-1" x="91.76" y="176.46" width="7.06" height="7.06"/><rect class="cls-1" x="98.82" y="176.46" width="7.06" height="7.06"/><rect class="cls-1" x="105.88" y="176.46" width="7.06" height="7.06"/><rect class="cls-1" x="112.94" y="176.46" width="7.06" height="7.06"/><rect class="cls-1" x="120" y="176.46" width="7.06" height="7.06"/><rect class="cls-1" x="134.11" y="176.46" width="7.06" height="7.06"/><rect class="cls-1" x="141.17" y="176.46" width="7.06" height="7.06"/><rect class="cls-1" x="148.23" y="176.46" width="7.06" height="7.06"/><rect class="cls-1" x="162.35" y="176.46" width="7.06" height="7.06"/><rect class="cls-1" x="169.41" y="176.46" width="7.06" height="7.06"/><rect class="cls-1" x="176.46" y="176.46" width="7.06" height="7.06"/><rect class="cls-1" x="197.64" y="176.46" width="7.06" height="7.06"/><rect class="cls-1" y="183.52" width="7.06" height="7.06"/><rect class="cls-1" x="14.12" y="183.52" width="7.06" height="7.06"/><rect class="cls-1" x="21.18" y="183.52" width="7.06" height="7.06"/><rect class="cls-1" x="28.23" y="183.52" width="7.06" height="7.06"/><rect class="cls-1" x="42.35" y="183.52" width="7.06" height="7.06"/><rect class="cls-1" x="56.47" y="183.52" width="7.06" height="7.06"/><rect class="cls-1" x="63.53" y="183.52" width="7.06" height="7.06"/><rect class="cls-1" x="70.59" y="183.52" width="7.06" height="7.06"/><rect class="cls-1" x="91.76" y="183.52" width="7.06" height="7.06"/><rect class="cls-1" x="98.82" y="183.52" width="7.06" height="7.06"/><rect class="cls-1" x="112.94" y="183.52" width="7.06" height="7.06"/><rect class="cls-1" x="162.35" y="183.52" width="7.06" height="7.06"/><rect class="cls-1" x="183.52" y="183.52" width="7.06" height="7.06"/><rect class="cls-1" x="197.64" y="183.52" width="7.06" height="7.06"/><rect class="cls-1" y="190.58" width="7.06" height="7.06"/><rect class="cls-1" x="42.35" y="190.58" width="7.06" height="7.06"/><rect class="cls-1" x="63.53" y="190.58" width="7.06" height="7.06"/><rect class="cls-1" x="91.76" y="190.58" width="7.06" height="7.06"/><rect class="cls-1" x="141.17" y="190.58" width="7.06" height="7.06"/><rect class="cls-1" x="155.29" y="190.58" width="7.06" height="7.06"/><rect class="cls-1" x="176.46" y="190.58" width="7.06" height="7.06"/><rect class="cls-1" x="190.58" y="190.58" width="7.06" height="7.06"/><rect class="cls-1" y="197.64" width="7.06" height="7.06"/><rect class="cls-1" x="7.06" y="197.64" width="7.06" height="7.06"/><rect class="cls-1" x="14.12" y="197.64" width="7.06" height="7.06"/><rect class="cls-1" x="21.18" y="197.64" width="7.06" height="7.06"/><rect class="cls-1" x="28.23" y="197.64" width="7.06" height="7.06"/><rect class="cls-1" x="35.29" y="197.64" width="7.06" height="7.06"/><rect class="cls-1" x="42.35" y="197.64" width="7.06" height="7.06"/><rect class="cls-1" x="56.47" y="197.64" width="7.06" height="7.06"/><rect class="cls-1" x="70.59" y="197.64" width="7.06" height="7.06"/><rect class="cls-1" x="84.7" y="197.64" width="7.06" height="7.06"/><rect class="cls-1" x="98.82" y="197.64" width="7.06" height="7.06"/><rect class="cls-1" x="112.94" y="197.64" width="7.06" height="7.06"/><rect class="cls-1" x="120" y="197.64" width="7.06" height="7.06"/><rect class="cls-1" x="127.05" y="197.64" width="7.06" height="7.06"/><rect class="cls-1" x="134.11" y="197.64" width="7.06" height="7.06"/><rect class="cls-1" x="141.17" y="197.64" width="7.06" height="7.06"/><rect class="cls-1" x="190.58" y="197.64" width="7.06" height="7.06"/></g></g></g></svg>